<svg width="606" height="402" xmlns="http://www.w3.org/2000/svg" xmlns:xlink="http://www.w3.org/1999/xlink" xml:space="preserve" overflow="hidden"><defs><clipPath id="clip0"><rect x="1418" y="296" width="606" height="402"/></clipPath><clipPath id="clip1"><rect x="1419" y="297" width="605" height="401"/></clipPath><clipPath id="clip2"><rect x="1419" y="297" width="605" height="401"/></clipPath><clipPath id="clip3"><rect x="1419" y="190" width="605" height="607"/></clipPath></defs><g clip-path="url(#clip0)" transform="translate(-1418 -296)"><g clip-path="url(#clip1)"><g clip-path="url(#clip2)"><g clip-path="url(#clip3)"><path d="M485.26 390.691 485.26 163.854 119.74 163.854 119.74 390.792ZM132.344 176.458 472.656 176.458 472.656 378.081 132.344 378.188Z" fill="#1DA4F2" fill-rule="nonzero" fill-opacity="1" transform="matrix(1 0 0 1.00137 1419 190.658)"/><path d="M100.833 157.552C100.833 150.591 106.476 144.948 113.438 144.948L491.562 144.948C498.524 144.948 504.167 150.591 504.167 157.552L504.167 416.019 516.771 416.019 516.771 157.552C516.771 143.63 505.484 132.344 491.562 132.344L113.438 132.344C99.5156 132.344 88.2292 143.63 88.2292 157.552L88.2292 416.019 100.833 416.019Z" fill="#1DA4F2" fill-rule="nonzero" fill-opacity="1" transform="matrix(1 0 0 1.00137 1419 190.658)"/><path d="M334.01 434.806 334.01 447.41 270.99 447.41 270.99 434.806 12.6042 434.806 12.6042 447.41C12.625 464.804 26.7205 478.9 44.1146 478.921L560.885 478.921C578.28 478.9 592.375 464.804 592.396 447.41L592.396 434.806ZM560.885 466.316 44.1146 466.316C33.673 466.316 25.2083 457.852 25.2083 447.41L258.385 447.41C258.155 454.141 263.425 459.784 270.156 460.014 270.434 460.024 270.712 460.024 270.99 460.014L334.01 460.014C340.741 460.244 346.385 454.974 346.615 448.244 346.624 447.966 346.624 447.688 346.615 447.41L579.792 447.41C579.792 457.852 571.327 466.316 560.885 466.316Z" fill="#1DA4F2" fill-rule="nonzero" fill-opacity="1" transform="matrix(1 0 0 1.00137 1419 190.658)"/></g></g></g></g></svg>