<svg width="476" height="477" xmlns="http://www.w3.org/2000/svg" xmlns:xlink="http://www.w3.org/1999/xlink" xml:space="preserve" overflow="hidden"><defs><clipPath id="clip0"><rect x="800" y="240" width="476" height="477"/></clipPath><clipPath id="clip1"><rect x="800" y="241" width="476" height="476"/></clipPath><clipPath id="clip2"><rect x="800" y="241" width="476" height="476"/></clipPath><clipPath id="clip3"><rect x="800" y="241" width="476" height="476"/></clipPath></defs><g clip-path="url(#clip0)" transform="translate(-800 -240)"><g clip-path="url(#clip1)"><g clip-path="url(#clip2)"><g clip-path="url(#clip3)"><path d="M979.333 548.655C978.76 546.168 977.332 543.962 975.297 542.422 970.924 539.142 965.966 536.724 960.69 535.297 952.634 532.963 944.082 532.963 936.027 535.297 930.74 536.723 925.774 539.145 921.395 542.432 919.355 543.971 917.923 546.18 917.349 548.67 917.309 548.838 917.275 549.012 917.25 549.165L909.133 607.227C908.753 609.938 910.642 612.444 913.352 612.825 913.581 612.859 913.811 612.875 914.042 612.875 916.511 612.872 918.602 611.052 918.945 608.606L927.023 550.866C927.068 550.669 927.18 550.494 927.34 550.37 930.712 547.84 934.535 545.975 938.605 544.876 944.968 542.999 951.738 542.999 958.101 544.876 962.161 545.974 965.974 547.835 969.337 550.36 969.497 550.484 969.609 550.659 969.654 550.856L977.731 608.591C978.075 611.035 980.163 612.855 982.63 612.86 982.864 612.861 983.098 612.844 983.329 612.811 986.04 612.429 987.929 609.923 987.549 607.213L979.437 549.17C979.412 548.997 979.378 548.824 979.333 548.655Z" fill="#1DA4F2" fill-rule="nonzero" fill-opacity="1"/><path d="M948.314 528.583C959.267 528.583 968.147 519.703 968.147 508.75 968.147 497.797 959.267 488.917 948.314 488.917 937.36 488.917 928.48 497.797 928.48 508.75 928.48 519.703 937.36 528.583 948.314 528.583ZM948.314 498.833C953.791 498.833 958.23 503.273 958.23 508.75 958.23 514.227 953.791 518.667 948.314 518.667 942.837 518.667 938.397 514.227 938.397 508.75 938.397 503.273 942.837 498.833 948.314 498.833Z" fill="#1DA4F2" fill-rule="nonzero" fill-opacity="1"/><path d="M890.524 548.66C889.951 546.17 888.518 543.961 886.478 542.422 882.114 539.143 877.165 536.724 871.896 535.297 867.87 534.164 863.712 533.574 859.53 533.542 855.363 533.576 851.22 534.163 847.208 535.287 841.924 536.716 836.96 539.137 832.581 542.422 830.541 543.961 829.109 546.17 828.535 548.66 828.496 548.828 828.461 549.002 828.436 549.155L820.329 607.227C819.949 609.938 821.838 612.444 824.549 612.825 824.779 612.859 825.011 612.875 825.243 612.875 827.713 612.872 829.803 611.052 830.147 608.606L838.214 550.866C838.257 550.668 838.37 550.493 838.531 550.37 841.902 547.841 845.724 545.977 849.792 544.876 852.96 543.975 856.235 543.498 859.53 543.458 862.833 543.493 866.116 543.968 869.293 544.871 873.352 545.969 877.166 547.83 880.528 550.355 880.689 550.478 880.802 550.653 880.846 550.851L888.923 608.591C889.266 611.037 891.357 612.857 893.827 612.86 894.059 612.861 894.291 612.844 894.521 612.811 897.233 612.432 899.124 609.926 898.745 607.214 898.745 607.214 898.745 607.213 898.745 607.213L890.623 549.17C890.6 548.998 890.567 548.828 890.524 548.66Z" fill="#1DA4F2" fill-rule="nonzero" fill-opacity="1"/><path d="M859.5 528.583C870.453 528.583 879.333 519.703 879.333 508.75 879.333 497.797 870.453 488.917 859.5 488.917 848.546 488.917 839.667 497.797 839.667 508.75 839.667 519.703 848.546 528.583 859.5 528.583ZM859.5 498.833C864.977 498.833 869.417 503.273 869.417 508.75 869.417 514.227 864.977 518.667 859.5 518.667 854.023 518.667 849.583 514.227 849.583 508.75 849.583 503.273 854.023 498.833 859.5 498.833Z" fill="#1DA4F2" fill-rule="nonzero" fill-opacity="1"/><path d="M963.189 563.292C963.189 560.553 960.969 558.333 958.23 558.333 955.492 558.333 953.272 560.553 953.272 563.292L953.272 607.917 943.355 607.917 943.355 563.292C943.355 560.553 941.135 558.333 938.397 558.333 935.659 558.333 933.439 560.553 933.439 563.292L933.439 687.037 943.355 687.037 943.355 617.833 953.272 617.833 953.272 687.037 963.189 687.037 963.189 578.167Z" fill="#1DA4F2" fill-rule="nonzero" fill-opacity="1"/><path d="M874.375 563.292C874.375 560.553 872.155 558.333 869.417 558.333L869.417 558.333C866.678 558.333 864.458 560.553 864.458 563.292L864.458 586.05 879.69 627.75 839.32 627.75 854.542 586.045 854.542 585.173 854.542 563.292C854.542 560.553 852.322 558.333 849.583 558.333 846.845 558.333 844.625 560.553 844.625 563.292L844.625 584.3 825.144 637.667 844.625 637.667 844.625 687.25 854.542 687.25 854.542 637.667 864.458 637.667 864.458 687.25 874.375 687.25 874.375 637.667 893.861 637.667 874.375 584.29Z" fill="#1DA4F2" fill-rule="nonzero" fill-opacity="1"/><path d="M1157.83 548.655C1157.26 546.168 1155.83 543.962 1153.8 542.422 1149.42 539.142 1144.47 536.724 1139.19 535.297 1131.13 532.963 1122.58 532.963 1114.53 535.297 1109.24 536.723 1104.27 539.145 1099.89 542.432 1097.85 543.971 1096.42 546.18 1095.85 548.67 1095.81 548.838 1095.77 549.012 1095.75 549.165L1087.63 607.227C1087.25 609.938 1089.14 612.444 1091.85 612.825 1092.08 612.859 1092.31 612.875 1092.54 612.875 1095.01 612.872 1097.1 611.052 1097.45 608.606L1105.52 550.866C1105.57 550.669 1105.68 550.494 1105.84 550.37 1109.21 547.84 1113.03 545.975 1117.11 544.876 1123.47 542.999 1130.24 542.999 1136.6 544.876 1140.66 545.974 1144.47 547.835 1147.84 550.36 1148 550.484 1148.11 550.659 1148.15 550.856L1156.23 608.591C1156.57 611.035 1158.66 612.855 1161.13 612.86 1161.36 612.861 1161.6 612.844 1161.83 612.811 1164.54 612.429 1166.43 609.923 1166.05 607.213L1157.94 549.17C1157.91 548.997 1157.88 548.824 1157.83 548.655Z" fill="#1DA4F2" fill-rule="nonzero" fill-opacity="1"/><path d="M1126.81 528.583C1137.77 528.583 1146.65 519.703 1146.65 508.75 1146.65 497.797 1137.77 488.917 1126.81 488.917 1115.86 488.917 1106.98 497.797 1106.98 508.75 1106.98 519.703 1115.86 528.583 1126.81 528.583ZM1126.81 498.833C1132.29 498.833 1136.73 503.273 1136.73 508.75 1136.73 514.227 1132.29 518.667 1126.81 518.667 1121.34 518.667 1116.9 514.227 1116.9 508.75 1116.9 503.273 1121.34 498.833 1126.81 498.833Z" fill="#1DA4F2" fill-rule="nonzero" fill-opacity="1"/><path d="M1069.02 548.66C1068.45 546.17 1067.02 543.961 1064.98 542.422 1060.61 539.143 1055.67 536.724 1050.4 535.297 1042.34 532.963 1033.78 532.963 1025.73 535.297 1020.44 536.726 1015.48 539.147 1011.1 542.432 1009.06 543.971 1007.63 546.18 1007.06 548.67 1007.02 548.838 1006.98 549.012 1006.96 549.165L998.829 607.227C998.449 609.938 1000.34 612.444 1003.05 612.825 1003.28 612.859 1003.51 612.875 1003.74 612.875 1006.21 612.872 1008.3 611.052 1008.65 608.606L1016.72 550.866C1016.77 550.668 1016.88 550.493 1017.04 550.37 1020.41 547.841 1024.23 545.977 1028.3 544.876 1034.67 542.999 1041.44 542.999 1047.8 544.876 1051.86 545.974 1055.68 547.835 1059.04 550.36 1059.2 550.483 1059.31 550.658 1059.36 550.856L1067.43 608.596C1067.78 611.042 1069.87 612.862 1072.34 612.865 1072.57 612.866 1072.8 612.849 1073.03 612.815 1075.74 612.437 1077.63 609.931 1077.26 607.219 1077.26 607.219 1077.26 607.218 1077.26 607.218L1069.12 549.17C1069.1 548.998 1069.07 548.828 1069.02 548.66Z" fill="#1DA4F2" fill-rule="nonzero" fill-opacity="1"/><path d="M1038 488.917C1027.05 488.917 1018.17 497.797 1018.17 508.75 1018.17 519.703 1027.05 528.583 1038 528.583 1048.95 528.583 1057.83 519.703 1057.83 508.75 1057.83 497.797 1048.95 488.917 1038 488.917ZM1038 518.667C1032.52 518.667 1028.08 514.227 1028.08 508.75 1028.08 503.273 1032.52 498.833 1038 498.833 1043.48 498.833 1047.92 503.273 1047.92 508.75 1047.92 514.227 1043.48 518.667 1038 518.667Z" fill="#1DA4F2" fill-rule="nonzero" fill-opacity="1"/><path d="M1141.69 563.292C1141.69 560.553 1139.47 558.333 1136.73 558.333 1133.99 558.333 1131.77 560.553 1131.77 563.292L1131.77 607.917 1121.86 607.917 1121.86 563.292C1121.86 560.553 1119.64 558.333 1116.9 558.333 1114.16 558.333 1111.94 560.553 1111.94 563.292L1111.94 687.037 1121.86 687.037 1121.86 617.833 1131.77 617.833 1131.77 687.037 1141.69 687.037 1141.69 578.167Z" fill="#1DA4F2" fill-rule="nonzero" fill-opacity="1"/><path d="M1052.88 563.292C1052.88 560.553 1050.66 558.333 1047.92 558.333L1047.92 558.333C1045.18 558.333 1042.96 560.553 1042.96 563.292L1042.96 586.05 1058.19 627.75 1017.82 627.75 1033.04 586.045 1033.04 585.173 1033.04 563.292C1033.04 560.553 1030.82 558.333 1028.08 558.333 1025.34 558.333 1023.12 560.553 1023.12 563.292L1023.12 584.3 1003.64 637.667 1023.12 637.667 1023.12 687.25 1033.04 687.25 1033.04 637.667 1042.96 637.667 1042.96 687.25 1052.88 687.25 1052.88 637.667 1072.36 637.667 1052.88 584.29Z" fill="#1DA4F2" fill-rule="nonzero" fill-opacity="1"/><path d="M979.333 330.488C978.76 328.001 977.332 325.795 975.297 324.255 970.924 320.975 965.966 318.557 960.69 317.13 952.634 314.796 944.082 314.796 936.027 317.13 930.74 318.557 925.774 320.978 921.395 324.265 919.355 325.804 917.923 328.013 917.349 330.503 917.309 330.671 917.275 330.845 917.25 330.999L909.133 389.061C908.753 391.772 910.642 394.277 913.352 394.659 913.581 394.692 913.811 394.708 914.042 394.708 916.511 394.705 918.602 392.885 918.945 390.439L927.023 332.699C927.068 332.503 927.18 332.328 927.34 332.204 930.712 329.673 934.535 327.809 938.605 326.71 944.968 324.832 951.738 324.832 958.101 326.71 962.161 327.808 965.974 329.668 969.337 332.194 969.497 332.318 969.609 332.493 969.654 332.69L977.731 390.424C978.075 392.868 980.163 394.688 982.63 394.693 982.864 394.694 983.098 394.678 983.329 394.644 986.04 394.263 987.929 391.757 987.549 389.046L979.437 331.004C979.412 330.83 979.378 330.658 979.333 330.488Z" fill="#1DA4F2" fill-rule="nonzero" fill-opacity="1"/><path d="M948.314 310.417C959.267 310.417 968.147 301.537 968.147 290.583 968.147 279.63 959.267 270.75 948.314 270.75 937.36 270.75 928.48 279.63 928.48 290.583 928.48 301.537 937.36 310.417 948.314 310.417ZM948.314 280.667C953.791 280.667 958.23 285.107 958.23 290.583 958.23 296.06 953.791 300.5 948.314 300.5 942.837 300.5 938.397 296.06 938.397 290.583 938.397 285.107 942.837 280.667 948.314 280.667Z" fill="#1DA4F2" fill-rule="nonzero" fill-opacity="1"/><path d="M943.355 360 943.355 345.125C943.355 342.387 941.135 340.167 938.397 340.167 935.659 340.167 933.439 342.387 933.439 345.125L933.439 468.87 943.355 468.87 943.355 399.667 953.272 399.667 953.272 468.87 963.189 468.87 963.189 360 963.189 345.125C963.189 342.387 960.969 340.167 958.23 340.167 955.492 340.167 953.272 342.387 953.272 345.125L953.272 389.75 943.355 389.75 943.355 360Z" fill="#1DA4F2" fill-rule="nonzero" fill-opacity="1"/><path d="M1157.83 330.488C1157.26 328.001 1155.83 325.795 1153.8 324.255 1149.42 320.975 1144.47 318.557 1139.19 317.13 1131.13 314.796 1122.58 314.796 1114.53 317.13 1109.24 318.557 1104.27 320.978 1099.89 324.265 1097.85 325.804 1096.42 328.013 1095.85 330.503 1095.81 330.671 1095.77 330.845 1095.75 330.999L1087.63 389.061C1087.25 391.772 1089.14 394.277 1091.85 394.659 1092.08 394.692 1092.31 394.708 1092.54 394.708 1095.01 394.705 1097.1 392.885 1097.45 390.439L1105.52 332.699C1105.57 332.503 1105.68 332.328 1105.84 332.204 1109.21 329.673 1113.03 327.809 1117.11 326.71 1123.47 324.832 1130.24 324.832 1136.6 326.71 1140.66 327.808 1144.47 329.668 1147.84 332.194 1148 332.318 1148.11 332.493 1148.15 332.69L1156.23 390.424C1156.57 392.868 1158.66 394.688 1161.13 394.693 1161.36 394.694 1161.6 394.678 1161.83 394.644 1164.54 394.263 1166.43 391.757 1166.05 389.046L1157.94 331.004C1157.91 330.83 1157.88 330.658 1157.83 330.488Z" fill="#1DA4F2" fill-rule="nonzero" fill-opacity="1"/><path d="M1126.81 310.417C1137.77 310.417 1146.65 301.537 1146.65 290.583 1146.65 279.63 1137.77 270.75 1126.81 270.75 1115.86 270.75 1106.98 279.63 1106.98 290.583 1106.98 301.537 1115.86 310.417 1126.81 310.417ZM1126.81 280.667C1132.29 280.667 1136.73 285.107 1136.73 290.583 1136.73 296.06 1132.29 300.5 1126.81 300.5 1121.34 300.5 1116.9 296.06 1116.9 290.583 1116.9 285.107 1121.34 280.667 1126.81 280.667Z" fill="#1DA4F2" fill-rule="nonzero" fill-opacity="1"/><path d="M1069.02 330.493C1068.45 328.003 1067.02 325.794 1064.98 324.255 1060.61 320.976 1055.67 318.558 1050.4 317.13 1042.34 314.796 1033.78 314.796 1025.73 317.13 1020.44 318.559 1015.48 320.98 1011.1 324.265 1009.06 325.804 1007.63 328.013 1007.06 330.503 1007.02 330.671 1006.98 330.845 1006.96 330.999L998.829 389.061C998.449 391.772 1000.34 394.277 1003.05 394.659 1003.28 394.692 1003.51 394.709 1003.74 394.708 1006.21 394.705 1008.3 392.885 1008.65 390.439L1016.72 332.699C1016.77 332.502 1016.88 332.326 1017.04 332.204 1020.41 329.675 1024.23 327.81 1028.3 326.71 1034.67 324.832 1041.44 324.832 1047.8 326.71 1051.86 327.808 1055.68 329.668 1059.04 332.194 1059.2 332.316 1059.31 332.492 1059.36 332.69L1067.43 390.429C1067.78 392.875 1069.87 394.695 1072.34 394.698 1072.57 394.699 1072.8 394.683 1073.03 394.649 1075.74 394.27 1077.63 391.764 1077.26 389.052 1077.26 389.052 1077.26 389.051 1077.26 389.051L1069.12 331.004C1069.1 330.832 1069.07 330.661 1069.02 330.493Z" fill="#1DA4F2" fill-rule="nonzero" fill-opacity="1"/><path d="M1038 310.417C1048.95 310.417 1057.83 301.537 1057.83 290.583 1057.83 279.63 1048.95 270.75 1038 270.75 1027.05 270.75 1018.17 279.63 1018.17 290.583 1018.17 301.537 1027.05 310.417 1038 310.417ZM1038 280.667C1043.48 280.667 1047.92 285.107 1047.92 290.583 1047.92 296.06 1043.48 300.5 1038 300.5 1032.52 300.5 1028.08 296.06 1028.08 290.583 1028.08 285.107 1032.52 280.667 1038 280.667Z" fill="#1DA4F2" fill-rule="nonzero" fill-opacity="1"/><path d="M1121.86 360 1121.86 345.125C1121.86 342.387 1119.64 340.167 1116.9 340.167 1114.16 340.167 1111.94 342.387 1111.94 345.125L1111.94 468.87 1121.86 468.87 1121.86 399.667 1131.77 399.667 1131.77 468.87 1141.69 468.87 1141.69 360 1141.69 345.125C1141.69 342.387 1139.47 340.167 1136.73 340.167 1133.99 340.167 1131.77 342.387 1131.77 345.125L1131.77 389.75 1121.86 389.75 1121.86 360Z" fill="#1DA4F2" fill-rule="nonzero" fill-opacity="1"/><path d="M1010.46 419.5 1023.12 419.5 1023.12 469.083 1033.04 469.083 1033.04 419.5 1042.96 419.5 1042.96 469.083 1052.88 469.083 1052.88 419.5 1072.36 419.5 1052.88 366.124 1052.88 345.125C1052.88 342.387 1050.66 340.167 1047.92 340.167 1045.18 340.167 1042.96 342.387 1042.96 345.125L1042.96 367.884 1058.19 409.583 1017.82 409.583 1033.04 367.879 1033.04 367.006 1033.04 345.125C1033.04 342.387 1030.82 340.167 1028.08 340.167 1025.34 340.167 1023.12 342.387 1023.12 345.125L1023.12 366.133 1003.64 419.5Z" fill="#1DA4F2" fill-rule="nonzero" fill-opacity="1"/><path d="M1247.52 548.66C1246.95 546.17 1245.52 543.961 1243.48 542.422 1239.11 539.143 1234.17 536.724 1228.9 535.297 1220.84 532.963 1212.28 532.963 1204.23 535.297 1198.94 536.726 1193.98 539.147 1189.6 542.432 1187.56 543.971 1186.13 546.18 1185.56 548.67 1185.52 548.838 1185.48 549.012 1185.46 549.165L1177.33 607.227C1176.95 609.938 1178.84 612.444 1181.55 612.825 1181.78 612.859 1182.01 612.875 1182.24 612.875 1184.71 612.872 1186.8 611.052 1187.15 608.606L1195.22 550.866C1195.27 550.668 1195.38 550.493 1195.54 550.37 1198.91 547.841 1202.73 545.977 1206.8 544.876 1213.17 542.999 1219.94 542.999 1226.3 544.876 1230.36 545.974 1234.18 547.835 1237.54 550.36 1237.7 550.483 1237.81 550.658 1237.86 550.856L1245.93 608.596C1246.28 611.042 1248.37 612.862 1250.84 612.865 1251.07 612.866 1251.3 612.849 1251.53 612.815 1254.24 612.437 1256.13 609.931 1255.76 607.219 1255.76 607.219 1255.76 607.218 1255.76 607.218L1247.62 549.17C1247.6 548.998 1247.57 548.828 1247.52 548.66Z" fill="#1DA4F2" fill-rule="nonzero" fill-opacity="1"/><path d="M1216.5 528.583C1227.45 528.583 1236.33 519.703 1236.33 508.75 1236.33 497.797 1227.45 488.917 1216.5 488.917 1205.55 488.917 1196.67 497.797 1196.67 508.75 1196.67 519.703 1205.55 528.583 1216.5 528.583ZM1216.5 498.833C1221.98 498.833 1226.42 503.273 1226.42 508.75 1226.42 514.227 1221.98 518.667 1216.5 518.667 1211.02 518.667 1206.58 514.227 1206.58 508.75 1206.58 503.273 1211.02 498.833 1216.5 498.833Z" fill="#1DA4F2" fill-rule="nonzero" fill-opacity="1"/><path d="M1231.38 563.292C1231.38 560.553 1229.16 558.333 1226.42 558.333L1226.42 558.333C1223.68 558.333 1221.46 560.553 1221.46 563.292L1221.46 586.05 1236.69 627.75 1196.32 627.75 1211.54 586.045 1211.54 585.173 1211.54 563.292C1211.54 560.553 1209.32 558.333 1206.58 558.333 1203.84 558.333 1201.62 560.553 1201.62 563.292L1201.62 584.3 1182.14 637.667 1201.62 637.667 1201.62 687.25 1211.54 687.25 1211.54 637.667 1221.46 637.667 1221.46 687.25 1231.38 687.25 1231.38 637.667 1250.86 637.667 1231.38 584.29Z" fill="#1DA4F2" fill-rule="nonzero" fill-opacity="1"/></g></g></g></g></svg>