<svg width="426" height="384" xmlns="http://www.w3.org/2000/svg" xmlns:xlink="http://www.w3.org/1999/xlink" xml:space="preserve" overflow="hidden"><defs><clipPath id="clip0"><rect x="248" y="296" width="426" height="384"/></clipPath><clipPath id="clip1"><rect x="248" y="297" width="426" height="383"/></clipPath><clipPath id="clip2"><rect x="248" y="297" width="426" height="383"/></clipPath></defs><g clip-path="url(#clip0)" transform="translate(-248 -296)"><g clip-path="url(#clip1)"><g clip-path="url(#clip2)"><path d="M430.15 120.077 320.112 120.077 320.112 90.0314C320.095 76.2261 308.908 65.0392 295.103 65.0227L205.072 65.0227C191.266 65.0392 180.079 76.2261 180.063 90.0314L180.063 120.077 70.0245 120.077C58.9896 120.112 50.053 129.049 50.0175 140.084L50.0175 380.243C50.053 391.278 58.9896 400.214 70.0245 400.25L430.15 400.25C441.185 400.214 450.122 391.278 450.157 380.243L450.157 140.089C450.124 129.052 441.187 120.112 430.15 120.077ZM190.066 90.0314C190.066 81.744 196.784 75.0262 205.072 75.0262L295.103 75.0262C303.39 75.0262 310.108 81.744 310.108 90.0314L310.108 120.042 190.066 120.042ZM70.0245 130.08 430.15 130.08C435.675 130.08 440.154 134.559 440.154 140.084L440.154 230.08 285.1 230.08 285.1 210.073 215.075 210.073 215.075 230.08 60.021 230.08 60.021 140.089C60.018 134.564 64.4945 130.083 70.0195 130.08 70.021 130.08 70.023 130.08 70.0245 130.08ZM275.096 220.077 275.096 255.089C275.096 260.614 270.618 265.093 265.093 265.093L235.082 265.093C229.557 265.093 225.079 260.614 225.079 255.089L225.079 220.077ZM430.15 390.251 70.0245 390.251C64.4995 390.251 60.021 385.773 60.021 380.248L60.021 240.084 215.075 240.084 215.075 255.089C215.075 266.138 224.033 275.096 235.082 275.096L265.093 275.096C276.142 275.096 285.1 266.138 285.1 255.089L285.1 240.084 440.154 240.084 440.154 380.243C440.156 385.768 435.68 390.249 430.155 390.251 430.154 390.251 430.152 390.251 430.15 390.251Z" fill="#1DA4F2" fill-rule="nonzero" fill-opacity="1" transform="matrix(1 0 0 1.00152 214.897 257.831)"/></g></g></g></svg>