<?xml version="1.0" encoding="UTF-8"?>
<!DOCTYPE svg PUBLIC "-//W3C//DTD SVG 1.1//EN" "http://www.w3.org/Graphics/SVG/1.1/DTD/svg11.dtd">
<svg xmlns="http://www.w3.org/2000/svg" version="1.1" width="423px" height="422px" style="shape-rendering:geometricPrecision; text-rendering:geometricPrecision; image-rendering:optimizeQuality; fill-rule:evenodd; clip-rule:evenodd" xmlns:xlink="http://www.w3.org/1999/xlink">
<g><path style="opacity:1" fill="#fdfdfd" d="M -0.5,-0.5 C 140.5,-0.5 281.5,-0.5 422.5,-0.5C 422.5,140.167 422.5,280.833 422.5,421.5C 281.5,421.5 140.5,421.5 -0.5,421.5C -0.5,280.833 -0.5,140.167 -0.5,-0.5 Z"/></g>
<g><path style="opacity:1" fill="#dfd3ee" d="M 229.5,5.5 C 229.5,5.16667 229.5,4.83333 229.5,4.5C 235.82,4.39958 241.82,5.39958 247.5,7.5C 241.51,6.76038 235.51,6.09371 229.5,5.5 Z"/></g>
<g><path style="opacity:1" fill="#71538e" d="M 190.5,5.5 C 190.167,6.16667 189.833,6.83333 189.5,7.5C 184.807,7.54011 180.141,7.87344 175.5,8.5C 175.5,8.16667 175.5,7.83333 175.5,7.5C 180.405,6.42821 185.405,5.76155 190.5,5.5 Z"/></g>
<g><path style="opacity:1" fill="#5e348e" d="M 229.5,4.5 C 229.5,4.83333 229.5,5.16667 229.5,5.5C 229.611,6.11742 229.944,6.61742 230.5,7C 236.477,7.83091 242.477,8.33091 248.5,8.5C 250.117,9.038 251.784,9.37133 253.5,9.5C 254.448,10.9779 255.781,11.9779 257.5,12.5C 253.869,12.9677 250.535,12.301 247.5,10.5C 245.483,11.6729 244.816,13.1729 245.5,15C 240.154,15.4324 234.82,15.2657 229.5,14.5C 229.5,13.5 229.5,12.5 229.5,11.5C 233.582,11.6564 237.582,11.1564 241.5,10C 238.475,9.6393 235.475,9.1393 232.5,8.5C 230.423,9.89165 228.089,10.5583 225.5,10.5C 217.815,10.3822 210.148,10.3822 202.5,10.5C 198.58,7.96275 194.247,6.96275 189.5,7.5C 189.833,6.83333 190.167,6.16667 190.5,5.5C 203.421,4.51967 216.421,4.18634 229.5,4.5 Z"/></g>
<g><path style="opacity:1" fill="#6e5393" d="M 229.5,5.5 C 235.51,6.09371 241.51,6.76038 247.5,7.5C 247.833,7.5 248.167,7.5 248.5,7.5C 248.5,7.83333 248.5,8.16667 248.5,8.5C 242.477,8.33091 236.477,7.83091 230.5,7C 229.944,6.61742 229.611,6.11742 229.5,5.5 Z"/></g>
<g><path style="opacity:1" fill="#d8c9e4" d="M 248.5,8.5 C 248.5,8.16667 248.5,7.83333 248.5,7.5C 252.065,8.46577 255.565,8.46577 259,7.5C 262.565,8.11126 265.398,9.77792 267.5,12.5C 262.897,11.2876 258.231,10.2876 253.5,9.5C 251.784,9.37133 250.117,9.038 248.5,8.5 Z"/></g>
<g><path style="opacity:1" fill="#b399c7" d="M 175.5,7.5 C 175.5,7.83333 175.5,8.16667 175.5,8.5C 171.038,8.42299 166.705,9.08966 162.5,10.5C 163.681,8.9328 165.347,8.09946 167.5,8C 170.146,7.50258 172.813,7.33591 175.5,7.5 Z"/></g>
<g><path style="opacity:1" fill="#5b2d92" d="M 189.5,7.5 C 194.247,6.96275 198.58,7.96275 202.5,10.5C 210.148,10.3822 217.815,10.3822 225.5,10.5C 228.089,10.5583 230.423,9.89165 232.5,8.5C 235.475,9.1393 238.475,9.6393 241.5,10C 237.582,11.1564 233.582,11.6564 229.5,11.5C 229.5,12.5 229.5,13.5 229.5,14.5C 234.82,15.2657 240.154,15.4324 245.5,15C 244.816,13.1729 245.483,11.6729 247.5,10.5C 250.535,12.301 253.869,12.9677 257.5,12.5C 266.769,14.2609 275.769,17.0942 284.5,21C 286.81,21.4966 289.143,21.6633 291.5,21.5C 295.988,23.2453 300.322,25.2453 304.5,27.5C 304.511,29.0174 305.177,30.1841 306.5,31C 310.897,33.1987 315.231,35.3654 319.5,37.5C 319.5,39.5 319.5,41.5 319.5,43.5C 322.518,43.3354 325.518,43.502 328.5,44C 329.885,45.6494 331.551,46.8161 333.5,47.5C 335.38,47.2291 336.713,47.8958 337.5,49.5C 337.5,50.8333 337.5,52.1667 337.5,53.5C 341.721,53.9102 344.221,56.2435 345,60.5C 347.137,61.4786 348.971,62.8119 350.5,64.5C 352.045,65.4519 353.712,65.7852 355.5,65.5C 357.167,66.5 358.5,67.8333 359.5,69.5C 358.553,71.7345 357.886,74.0678 357.5,76.5C 357.477,78.0666 357.977,79.3999 359,80.5C 359.495,78.5273 359.662,76.5273 359.5,74.5C 360.873,74.3433 362.207,74.51 363.5,75C 364.723,77.0521 365.723,79.2188 366.5,81.5C 369.49,82.8587 372.157,84.5254 374.5,86.5C 375.1,89.298 376.1,91.9646 377.5,94.5C 378.325,95.3857 379.325,95.719 380.5,95.5C 380.736,98.9139 381.402,102.247 382.5,105.5C 384.047,106.768 385.047,108.435 385.5,110.5C 386.325,111.386 387.325,111.719 388.5,111.5C 388.3,114.804 389.634,117.304 392.5,119C 392.873,124.847 395.207,129.681 399.5,133.5C 400.712,139.357 402.379,145.024 404.5,150.5C 406.213,157.005 407.379,163.671 408,170.5C 409.74,171.716 410.74,173.382 411,175.5C 412.459,187.793 413.292,200.126 413.5,212.5C 412.426,224.832 411.426,237.165 410.5,249.5C 409.842,250.398 409.176,251.398 408.5,252.5C 407.161,259.511 405.828,266.511 404.5,273.5C 403.361,276.004 402.694,278.67 402.5,281.5C 402.573,283.027 401.906,284.027 400.5,284.5C 398.636,285.978 397.303,287.978 396.5,290.5C 395.021,288.322 393.688,285.988 392.5,283.5C 391.675,282.614 390.675,282.281 389.5,282.5C 391.056,286.998 392.723,291.498 394.5,296C 393.214,298.022 392.214,300.189 391.5,302.5C 390.675,303.386 389.675,303.719 388.5,303.5C 388.5,305.167 388.5,306.833 388.5,308.5C 386.408,308.561 384.908,309.561 384,311.5C 383.887,313.974 382.887,315.974 381,317.5C 380.505,319.473 380.338,321.473 380.5,323.5C 378.133,324.164 376.133,325.497 374.5,327.5C 373.614,326.675 373.281,325.675 373.5,324.5C 372.5,324.5 371.5,324.5 370.5,324.5C 370.579,326.666 371.246,328.666 372.5,330.5C 371.323,332.975 369.323,333.975 366.5,333.5C 366.159,330.484 364.993,327.818 363,325.5C 361.506,324.253 360.006,324.253 358.5,325.5C 361.496,329.305 362.163,333.471 360.5,338C 361.899,338.595 363.232,338.428 364.5,337.5C 364.833,338 365.167,338.5 365.5,339C 364.767,340.766 364.433,342.599 364.5,344.5C 362.5,344.5 360.5,344.5 358.5,344.5C 359.263,348.138 357.93,349.638 354.5,349C 342.65,336.497 330.483,324.33 318,312.5C 316.918,309.352 314.751,307.186 311.5,306C 299.483,293.081 287.15,280.581 274.5,268.5C 274.234,264.429 274.567,260.429 275.5,256.5C 275.043,255.702 274.376,255.369 273.5,255.5C 259.205,253.517 244.538,252.85 229.5,253.5C 229.5,253.167 229.5,252.833 229.5,252.5C 238.857,252.832 248.19,252.498 257.5,251.5C 250.957,245.292 244.457,238.959 238,232.5C 235.413,228.743 232.246,225.41 228.5,222.5C 228.167,221.5 227.5,220.833 226.5,220.5C 226.5,219.167 226.5,217.833 226.5,216.5C 240.01,216.829 253.344,216.496 266.5,215.5C 268.95,215.126 269.95,213.626 269.5,211C 269.503,208.516 268.837,206.349 267.5,204.5C 267.5,203.5 267.5,202.5 267.5,201.5C 267.5,200.167 267.5,198.833 267.5,197.5C 265.897,197.312 264.563,197.812 263.5,199C 251.171,199.5 238.838,199.667 226.5,199.5C 226.5,187.833 226.5,176.167 226.5,164.5C 241.01,164.829 255.343,164.496 269.5,163.5C 269.5,163.167 269.5,162.833 269.5,162.5C 270.483,158.702 270.817,154.702 270.5,150.5C 260.856,149.168 250.856,148.501 240.5,148.5C 230.328,148.5 220.328,148.834 210.5,149.5C 210.5,150.167 210.5,150.833 210.5,151.5C 209.667,189.664 209.167,227.998 209,266.5C 208.667,244.833 208.333,223.167 208,201.5C 205.928,200.266 204.428,198.599 203.5,196.5C 204.833,196.5 206.167,196.5 207.5,196.5C 207.5,191.5 207.5,186.5 207.5,181.5C 206.167,181.5 204.833,181.5 203.5,181.5C 203.5,170.167 203.5,158.833 203.5,147.5C 202.178,147.33 201.011,147.663 200,148.5C 198.788,164.553 199.621,180.219 202.5,195.5C 201.078,194.075 199.411,193.075 197.5,192.5C 193.203,186.536 188.203,181.203 182.5,176.5C 181.833,168.01 181.167,159.676 180.5,151.5C 180.5,150.833 180.167,150.5 179.5,150.5C 175.03,149.514 170.363,149.181 165.5,149.5C 165.5,152.5 165.5,155.5 165.5,158.5C 165.167,158.5 164.833,158.5 164.5,158.5C 162.877,156.049 160.711,154.049 158,152.5C 156.918,149.352 154.751,147.186 151.5,146C 144.011,136.502 135.511,128.002 126,120.5C 124.918,117.352 122.751,115.186 119.5,114C 116.903,110.281 113.737,107.114 110,104.5C 108.918,101.352 106.751,99.1855 103.5,98C 100.903,94.2807 97.7365,91.114 94,88.5C 92.9177,85.3522 90.7511,83.1855 87.5,82C 84.9032,78.2807 81.7365,75.114 78,72.5C 77.8333,69.6667 76.3333,68.1667 73.5,68C 71.9297,66.6032 70.5964,65.1032 69.5,63.5C 69.5,62.8333 69.5,62.1667 69.5,61.5C 71.1992,61.6602 72.8659,61.4935 74.5,61C 76.6753,58.442 78.3419,55.6087 79.5,52.5C 81.3084,52.5086 82.9751,52.0086 84.5,51C 89.1206,48.0468 93.454,44.7134 97.5,41C 100.709,40.1219 103.709,38.7886 106.5,37C 107.305,35.8873 107.972,34.7206 108.5,33.5C 109.338,33.1583 109.672,32.4916 109.5,31.5C 110.873,31.6567 112.207,31.49 113.5,31C 124.234,24.6053 135.734,20.1053 148,17.5C 152.793,15.6321 157.293,13.2987 161.5,10.5C 161.833,10.5 162.167,10.5 162.5,10.5C 166.705,9.08966 171.038,8.42299 175.5,8.5C 180.141,7.87344 184.807,7.54011 189.5,7.5 Z"/></g>
<g><path style="opacity:1" fill="#e8daf1" d="M 154.5,11.5 C 147.269,14.3557 139.936,17.0224 132.5,19.5C 132.804,18.8501 133.137,18.1835 133.5,17.5C 137.122,16.5977 140.455,15.0977 143.5,13C 147.114,12.0642 150.78,11.5642 154.5,11.5 Z"/></g>
<g><path style="opacity:1" fill="#59357f" d="M 253.5,9.5 C 258.231,10.2876 262.897,11.2876 267.5,12.5C 275.553,15.388 283.553,18.388 291.5,21.5C 289.143,21.6633 286.81,21.4966 284.5,21C 275.769,17.0942 266.769,14.2609 257.5,12.5C 255.781,11.9779 254.448,10.9779 253.5,9.5 Z"/></g>
<g><path style="opacity:1" fill="#5d3c86" d="M 161.5,10.5 C 157.293,13.2987 152.793,15.6321 148,17.5C 135.734,20.1053 124.234,24.6053 113.5,31C 112.207,31.49 110.873,31.6567 109.5,31.5C 111.19,29.6583 113.19,28.325 115.5,27.5C 117.97,27.3465 119.97,26.3465 121.5,24.5C 125.321,23.0882 128.987,21.4215 132.5,19.5C 139.936,17.0224 147.269,14.3557 154.5,11.5C 156.806,11.0074 159.139,10.6741 161.5,10.5 Z"/></g>
<g><path style="opacity:1" fill="#ecdef3" d="M 267.5,12.5 C 272.887,12.4054 278.22,12.9054 283.5,14C 285.5,15.6667 287.5,17.3333 289.5,19C 295.182,21.0295 300.848,23.0295 306.5,25C 306.167,25.3333 305.833,25.6667 305.5,26C 308.881,26.5526 311.215,28.386 312.5,31.5C 309.605,30.6006 306.938,29.2672 304.5,27.5C 300.322,25.2453 295.988,23.2453 291.5,21.5C 283.553,18.388 275.553,15.388 267.5,12.5 Z"/></g>
<g><path style="opacity:1" fill="#b59ace" d="M 121.5,24.5 C 119.97,26.3465 117.97,27.3465 115.5,27.5C 117.03,25.6535 119.03,24.6535 121.5,24.5 Z"/></g>
<g><path style="opacity:1" fill="#735491" d="M 109.5,31.5 C 109.672,32.4916 109.338,33.1583 108.5,33.5C 105.449,34.6963 102.782,36.5296 100.5,39C 98.7525,39.3519 97.0858,39.8519 95.5,40.5C 98.0597,38.4272 100.726,36.2605 103.5,34C 105.407,32.878 107.407,32.0447 109.5,31.5 Z"/></g>
<g><path style="opacity:1" fill="#5b3582" d="M 304.5,27.5 C 306.938,29.2672 309.605,30.6006 312.5,31.5C 318.994,35.2469 325.327,39.2469 331.5,43.5C 331.733,45.0618 332.4,46.3951 333.5,47.5C 331.551,46.8161 329.885,45.6494 328.5,44C 325.518,43.502 322.518,43.3354 319.5,43.5C 319.5,41.5 319.5,39.5 319.5,37.5C 315.231,35.3654 310.897,33.1987 306.5,31C 305.177,30.1841 304.511,29.0174 304.5,27.5 Z"/></g>
<g><path style="opacity:1" fill="#e7d7f0" d="M 88.5,44.5 C 86.2297,46.9748 83.563,48.9748 80.5,50.5C 80.5,49.5 80.5,48.5 80.5,47.5C 81.552,47.6495 82.552,47.4828 83.5,47C 82.1667,46.3333 82.1667,45.6667 83.5,45C 85.1341,44.5065 86.8008,44.3398 88.5,44.5 Z"/></g>
<g><path style="opacity:1" fill="#5b3885" d="M 108.5,33.5 C 107.972,34.7206 107.305,35.8873 106.5,37C 103.709,38.7886 100.709,40.1219 97.5,41C 93.454,44.7134 89.1206,48.0468 84.5,51C 82.9751,52.0086 81.3084,52.5086 79.5,52.5C 79.8333,51.8333 80.1667,51.1667 80.5,50.5C 83.563,48.9748 86.2297,46.9748 88.5,44.5C 90.8505,43.1389 93.1838,41.8056 95.5,40.5C 97.0858,39.8519 98.7525,39.3519 100.5,39C 102.782,36.5296 105.449,34.6963 108.5,33.5 Z"/></g>
<g><path style="opacity:1" fill="#b6a1c4" d="M 331.5,43.5 C 334.933,45.305 337.933,47.6383 340.5,50.5C 339.391,50.4431 338.391,50.1098 337.5,49.5C 336.713,47.8958 335.38,47.2291 333.5,47.5C 332.4,46.3951 331.733,45.0618 331.5,43.5 Z"/></g>
<g><path style="opacity:1" fill="#623d87" d="M 79.5,52.5 C 78.3419,55.6087 76.6753,58.442 74.5,61C 72.8659,61.4935 71.1992,61.6602 69.5,61.5C 72.0285,57.575 75.3618,54.575 79.5,52.5 Z"/></g>
<g><path style="opacity:1" fill="#5a3687" d="M 337.5,49.5 C 338.391,50.1098 339.391,50.4431 340.5,50.5C 345.806,55.1396 350.806,60.1396 355.5,65.5C 353.712,65.7852 352.045,65.4519 350.5,64.5C 348.971,62.8119 347.137,61.4786 345,60.5C 344.221,56.2435 341.721,53.9102 337.5,53.5C 337.5,52.1667 337.5,50.8333 337.5,49.5 Z"/></g>
<g><path style="opacity:1" fill="#755a92" d="M 69.5,61.5 C 69.5,62.1667 69.5,62.8333 69.5,63.5C 66.1389,70.5088 60.8056,75.5088 53.5,78.5C 58.1569,72.177 63.4902,66.5104 69.5,61.5 Z"/></g>
<g><path style="opacity:1" fill="#603b8b" d="M 359.5,69.5 C 362.903,71.8998 365.57,74.8998 367.5,78.5C 370.52,80.5232 372.854,83.1898 374.5,86.5C 372.157,84.5254 369.49,82.8587 366.5,81.5C 365.723,79.2188 364.723,77.0521 363.5,75C 362.207,74.51 360.873,74.3433 359.5,74.5C 359.662,76.5273 359.495,78.5273 359,80.5C 357.977,79.3999 357.477,78.0666 357.5,76.5C 357.886,74.0678 358.553,71.7345 359.5,69.5 Z"/></g>
<g><path style="opacity:1" fill="#6c459c" d="M 69.5,63.5 C 70.5964,65.1032 71.9297,66.6032 73.5,68C 76.3333,68.1667 77.8333,69.6667 78,72.5C 81.7365,75.114 84.9032,78.2807 87.5,82C 90.7511,83.1855 92.9177,85.3522 94,88.5C 97.7365,91.114 100.903,94.2807 103.5,98C 106.751,99.1855 108.918,101.352 110,104.5C 113.737,107.114 116.903,110.281 119.5,114C 122.751,115.186 124.918,117.352 126,120.5C 135.511,128.002 144.011,136.502 151.5,146C 154.751,147.186 156.918,149.352 158,152.5C 160.711,154.049 162.877,156.049 164.5,158.5C 164.727,185.604 164.394,212.604 163.5,239.5C 158.806,232.636 154.306,225.636 150,218.5C 149.184,217.177 148.017,216.511 146.5,216.5C 143.341,213.002 141.008,209.002 139.5,204.5C 138.453,201.404 137.12,198.404 135.5,195.5C 131.753,190.341 128.253,185.008 125,179.5C 123.574,177.234 121.74,175.568 119.5,174.5C 119.167,173.5 118.5,172.833 117.5,172.5C 117.068,171.29 116.401,170.29 115.5,169.5C 113.582,164.657 110.916,160.323 107.5,156.5C 106.525,154.205 105.192,152.205 103.5,150.5C 103.5,150.167 103.5,149.833 103.5,149.5C 100.913,148.184 97.9134,147.517 94.5,147.5C 91.2478,147.521 88.0811,147.854 85,148.5C 84.1688,188.002 84.3355,227.335 85.5,266.5C 90.1667,267.833 94.8333,267.833 99.5,266.5C 100.5,266.5 101.5,266.5 102.5,266.5C 101.196,236.703 101.196,207.037 102.5,177.5C 103.386,178.325 103.719,179.325 103.5,180.5C 104.5,180.5 105.5,180.5 106.5,180.5C 118.843,199.194 131.176,217.861 143.5,236.5C 145.42,239.339 147.087,242.339 148.5,245.5C 148.771,247.821 148.104,249.821 146.5,251.5C 148.341,252.23 150.175,252.897 152,253.5C 152.186,255.9 152.686,258.234 153.5,260.5C 155.941,261.741 157.441,263.741 158,266.5C 158.333,266.167 158.667,265.833 159,265.5C 159.5,266.667 160.333,267.5 161.5,268C 167.349,268.818 173.015,268.652 178.5,267.5C 179.117,267.389 179.617,267.056 180,266.5C 180.5,228.168 180.667,189.835 180.5,151.5C 181.167,159.676 181.833,168.01 182.5,176.5C 188.203,181.203 193.203,186.536 197.5,192.5C 200.099,207.038 200.099,221.704 197.5,236.5C 198.249,241.489 198.915,246.489 199.5,251.5C 196.575,271.075 197.575,271.408 202.5,252.5C 201.833,247.167 201.167,241.833 200.5,236.5C 202.163,223.217 202.83,209.884 202.5,196.5C 202.833,196.5 203.167,196.5 203.5,196.5C 204.428,198.599 205.928,200.266 208,201.5C 208.333,223.167 208.667,244.833 209,266.5C 209.167,227.998 209.667,189.664 210.5,151.5C 210.5,190.167 210.5,228.833 210.5,267.5C 231.009,268.475 251.675,268.975 272.5,269C 271.944,268.617 271.611,268.117 271.5,267.5C 271.833,267.5 272.167,267.5 272.5,267.5C 272.833,267.5 273.167,267.5 273.5,267.5C 273.5,268.167 273.833,268.5 274.5,268.5C 287.15,280.581 299.483,293.081 311.5,306C 314.751,307.186 316.918,309.352 318,312.5C 330.483,324.33 342.65,336.497 354.5,349C 357.93,349.638 359.263,348.138 358.5,344.5C 360.5,344.5 362.5,344.5 364.5,344.5C 364.167,345.167 363.833,345.833 363.5,346.5C 360.167,349.167 357.167,352.167 354.5,355.5C 353.391,355.557 352.391,355.89 351.5,356.5C 349.692,356.491 348.025,356.991 346.5,358C 343.299,361.536 339.799,364.703 336,367.5C 335.209,368.745 334.709,370.078 334.5,371.5C 330.385,375.957 325.718,379.624 320.5,382.5C 316.395,383.283 313.061,385.283 310.5,388.5C 305.98,389.615 301.98,391.615 298.5,394.5C 293.143,396.515 287.809,398.515 282.5,400.5C 280.266,400.62 278.099,400.287 276,399.5C 274.143,401.342 271.976,402.842 269.5,404C 263.844,404.381 258.511,405.714 253.5,408C 254.056,408.383 254.389,408.883 254.5,409.5C 254.167,409.5 253.833,409.5 253.5,409.5C 249.165,409.917 244.832,410.417 240.5,411C 239.944,411.383 239.611,411.883 239.5,412.5C 236.167,412.5 232.833,412.5 229.5,412.5C 218.828,412.667 208.161,412.5 197.5,412C 187.273,410.434 177.106,408.601 167,406.5C 164.863,407.077 162.696,407.41 160.5,407.5C 160.063,405.926 159.063,404.759 157.5,404C 154.5,403.667 151.5,403.333 148.5,403C 140.539,398.764 132.205,395.597 123.5,393.5C 122.013,390.516 119.68,388.349 116.5,387C 105.314,383.741 96.1477,377.574 89,368.5C 87.437,369.102 87.6037,369.935 89.5,371C 85.8091,370.676 83.1424,368.676 81.5,365C 80.2068,364.51 78.8734,364.343 77.5,364.5C 77.1667,364.5 76.8333,364.5 76.5,364.5C 73.8333,361.167 70.8333,358.167 67.5,355.5C 67.1667,354.833 66.8333,354.167 66.5,353.5C 64.9939,349.501 62.3272,346.501 58.5,344.5C 57.5713,343.311 57.238,341.978 57.5,340.5C 56.1667,340.5 54.8333,340.5 53.5,340.5C 53.5,340.167 53.5,339.833 53.5,339.5C 53.5,338.167 53.5,336.833 53.5,335.5C 52.325,335.719 51.325,335.386 50.5,334.5C 49.7838,332.092 48.4505,330.092 46.5,328.5C 45.3591,325.938 44.5257,323.272 44,320.5C 40.4527,315.616 36.286,311.616 31.5,308.5C 31.2503,306.326 30.2503,304.659 28.5,303.5C 28.4431,302.391 28.1098,301.391 27.5,300.5C 27.6658,295.821 27.4992,291.155 27,286.5C 25.9326,285.809 24.7659,285.309 23.5,285C 22.3972,282.243 20.7306,280.076 18.5,278.5C 18.071,271.425 16.7377,264.592 14.5,258C 14.6667,256.833 14.8333,255.667 15,254.5C 18.1188,251.973 19.2854,248.64 18.5,244.5C 17.5,244.5 16.5,244.5 15.5,244.5C 15.5,239.167 15.5,233.833 15.5,228.5C 14.1779,228.33 13.0113,228.663 12,229.5C 11.4343,235.245 11.9343,240.912 13.5,246.5C 13.2811,247.938 12.7811,249.271 12,250.5C 10.6593,244.602 9.82596,238.602 9.5,232.5C 10.7711,219.495 10.7711,206.495 9.5,193.5C 10.7934,187.567 11.6268,181.567 12,175.5C 12.5354,173.729 13.3687,173.396 14.5,174.5C 15.3482,176.409 15.6816,178.409 15.5,180.5C 16.5,180.5 17.5,180.5 18.5,180.5C 18.7394,178.533 18.4061,176.699 17.5,175C 21.1196,169.481 19.7863,166.315 13.5,165.5C 13.5,163.5 13.5,161.5 13.5,159.5C 16.8946,149.095 20.728,138.762 25,128.5C 26.0793,125.937 26.5793,123.271 26.5,120.5C 26.3915,118.486 27.0582,116.82 28.5,115.5C 30.3134,113.947 32.1467,112.28 34,110.5C 34.1545,107.475 35.6545,105.809 38.5,105.5C 40.3834,102.367 41.7168,98.8666 42.5,95C 44.0054,92.1613 46.1721,89.9946 49,88.5C 50.3229,85.6912 51.8229,83.0245 53.5,80.5C 53.5,79.8333 53.5,79.1667 53.5,78.5C 60.8056,75.5088 66.1389,70.5088 69.5,63.5 Z"/></g>
<g><path style="opacity:1" fill="#987fae" d="M 53.5,78.5 C 53.5,79.1667 53.5,79.8333 53.5,80.5C 51.5,82.1667 49.5,83.8333 47.5,85.5C 48.7573,82.5726 50.7573,80.2393 53.5,78.5 Z"/></g>
<g><path style="opacity:1" fill="#705496" d="M 53.5,80.5 C 51.8229,83.0245 50.3229,85.6912 49,88.5C 46.1721,89.9946 44.0054,92.1613 42.5,95C 41.7168,98.8666 40.3834,102.367 38.5,105.5C 35.6545,105.809 34.1545,107.475 34,110.5C 32.1467,112.28 30.3134,113.947 28.5,115.5C 29.2271,113.046 30.2271,110.713 31.5,108.5C 34.2307,106.054 36.2307,103.054 37.5,99.5C 40.4453,94.5549 43.7786,89.8883 47.5,85.5C 49.5,83.8333 51.5,82.1667 53.5,80.5 Z"/></g>
<g><path style="opacity:1" fill="#f0e2f5" d="M 367.5,78.5 C 371.035,78.8013 373.368,80.6347 374.5,84C 375.448,84.4828 376.448,84.6495 377.5,84.5C 378.892,88.1964 380.225,91.8631 381.5,95.5C 381.167,95.5 380.833,95.5 380.5,95.5C 378.857,92.1858 376.857,89.1858 374.5,86.5C 372.854,83.1898 370.52,80.5232 367.5,78.5 Z"/></g>
<g><path style="opacity:1" fill="#6c4b8d" d="M 374.5,86.5 C 376.857,89.1858 378.857,92.1858 380.5,95.5C 379.325,95.719 378.325,95.3857 377.5,94.5C 376.1,91.9646 375.1,89.298 374.5,86.5 Z"/></g>
<g><path style="opacity:1" fill="#dfd1eb" d="M 37.5,99.5 C 36.2307,103.054 34.2307,106.054 31.5,108.5C 32.6452,106.288 33.6452,103.955 34.5,101.5C 35.2652,100.388 36.2652,99.7214 37.5,99.5 Z"/></g>
<g><path style="opacity:1" fill="#5f3789" d="M 380.5,95.5 C 380.833,95.5 381.167,95.5 381.5,95.5C 386.369,103.239 390.702,111.239 394.5,119.5C 394.737,122.647 395.57,125.647 397,128.5C 397.377,129.942 398.21,130.942 399.5,131.5C 399.5,131.833 399.5,132.167 399.5,132.5C 399.5,132.833 399.5,133.167 399.5,133.5C 395.207,129.681 392.873,124.847 392.5,119C 389.634,117.304 388.3,114.804 388.5,111.5C 387.325,111.719 386.325,111.386 385.5,110.5C 385.047,108.435 384.047,106.768 382.5,105.5C 381.402,102.247 380.736,98.9139 380.5,95.5 Z"/></g>
<g><path style="opacity:1" fill="#634686" d="M 394.5,119.5 C 395.687,121.072 396.687,122.739 397.5,124.5C 397.878,126.921 398.545,129.254 399.5,131.5C 398.21,130.942 397.377,129.942 397,128.5C 395.57,125.647 394.737,122.647 394.5,119.5 Z"/></g>
<g><path style="opacity:1" fill="#e4d6ed" d="M 397.5,124.5 C 400.786,125.242 402.12,127.075 401.5,130C 402.54,133.4 403.206,136.9 403.5,140.5C 402.462,137.655 401.128,134.988 399.5,132.5C 399.5,132.167 399.5,131.833 399.5,131.5C 398.545,129.254 397.878,126.921 397.5,124.5 Z"/></g>
<g><path style="opacity:1" fill="#6f528f" d="M 26.5,120.5 C 26.5793,123.271 26.0793,125.937 25,128.5C 20.728,138.762 16.8946,149.095 13.5,159.5C 13.0603,161.844 12.0603,163.844 10.5,165.5C 11.185,160.761 12.185,156.094 13.5,151.5C 14.3446,150.329 15.0113,148.995 15.5,147.5C 17.1628,145.562 17.8294,143.228 17.5,140.5C 19.0981,136.963 20.4314,133.296 21.5,129.5C 22.7217,126.272 24.3884,123.272 26.5,120.5 Z"/></g>
<g><path style="opacity:1" fill="#efe4f5" d="M 21.5,129.5 C 20.4314,133.296 19.0981,136.963 17.5,140.5C 16.0762,142.515 15.4095,144.848 15.5,147.5C 15.0113,148.995 14.3446,150.329 13.5,151.5C 13.6886,147.652 13.6886,143.985 13.5,140.5C 15.7377,138.742 16.7377,136.408 16.5,133.5C 19.4,133.592 21.0667,132.259 21.5,129.5 Z"/></g>
<g><path style="opacity:1" fill="#9c84ae" d="M 17.5,140.5 C 17.8294,143.228 17.1628,145.562 15.5,147.5C 15.4095,144.848 16.0762,142.515 17.5,140.5 Z"/></g>
<g><path style="opacity:1" fill="#4b2b77" d="M 210.5,149.5 C 220.328,148.834 230.328,148.5 240.5,148.5C 250.856,148.501 260.856,149.168 270.5,150.5C 270.167,150.5 269.833,150.5 269.5,150.5C 250.007,149.503 230.34,149.17 210.5,149.5 Z"/></g>
<g><path style="opacity:1" fill="#a189bb" d="M 283.5,150.5 C 310.833,149.167 338.167,149.167 365.5,150.5C 365.817,154.702 365.483,158.702 364.5,162.5C 364.5,158.5 364.5,154.5 364.5,150.5C 337.5,150.5 310.5,150.5 283.5,150.5 Z"/></g>
<g><path style="opacity:1" fill="#fbfbfc" d="M 103.5,150.5 C 105.192,152.205 106.525,154.205 107.5,156.5C 108.201,160.879 109.868,164.879 112.5,168.5C 113.325,169.386 114.325,169.719 115.5,169.5C 116.401,170.29 117.068,171.29 117.5,172.5C 117.215,174.288 117.548,175.955 118.5,177.5C 121.783,181.276 124.616,185.276 127,189.5C 127.918,192.063 127.418,194.23 125.5,196C 126.5,197 127.5,198 128.5,199C 127.167,199.333 125.833,199.667 124.5,200C 125.667,201.833 127.167,203.333 129,204.5C 129.667,206.167 129.667,207.833 129,209.5C 122.701,202.463 117.868,194.463 114.5,185.5C 113.675,184.614 112.675,184.281 111.5,184.5C 111.5,183.167 111.5,181.833 111.5,180.5C 109.784,180.371 108.117,180.038 106.5,179.5C 105.488,178.128 104.488,176.795 103.5,175.5C 102.277,172.726 100.777,170.059 99,167.5C 98.5172,168.448 98.3505,169.448 98.5,170.5C 98.5,202.5 98.5,234.5 98.5,266.5C 94.5,266.5 90.5,266.5 86.5,266.5C 86.5,227.833 86.5,189.167 86.5,150.5C 92.1667,150.5 97.8333,150.5 103.5,150.5 Z"/></g>
<g><path style="opacity:1" fill="#5a2d99" d="M 203.5,196.5 C 203.167,196.5 202.833,196.5 202.5,196.5C 202.5,196.167 202.5,195.833 202.5,195.5C 199.621,180.219 198.788,164.553 200,148.5C 201.011,147.663 202.178,147.33 203.5,147.5C 203.5,158.833 203.5,170.167 203.5,181.5C 204.833,181.5 206.167,181.5 207.5,181.5C 207.5,186.5 207.5,191.5 207.5,196.5C 206.167,196.5 204.833,196.5 203.5,196.5 Z"/></g>
<g><path style="opacity:1" fill="#fdfcfc" d="M 167.5,151.5 C 171.167,151.5 174.833,151.5 178.5,151.5C 178.5,189.5 178.5,227.5 178.5,265.5C 172.599,265.948 166.932,265.281 161.5,263.5C 162.106,260.084 161.106,257.418 158.5,255.5C 157.779,253.314 157.113,251.147 156.5,249C 159.54,249.773 162.373,251.273 165,253.5C 166.883,252.347 167.716,250.681 167.5,248.5C 167.5,216.167 167.5,183.833 167.5,151.5 Z"/></g>
<g><path style="opacity:1" fill="#fcfbfb" d="M 268.5,161.5 C 253.657,161.171 238.99,161.504 224.5,162.5C 224.5,175.5 224.5,188.5 224.5,201.5C 238.323,202.496 252.323,202.829 266.5,202.5C 266.5,206.167 266.5,209.833 266.5,213.5C 252.323,213.171 238.323,213.504 224.5,214.5C 224.5,227.833 224.5,241.167 224.5,254.5C 239.991,255.496 255.658,255.83 271.5,255.5C 271.5,259.167 271.5,262.833 271.5,266.5C 251.5,266.5 231.5,266.5 211.5,266.5C 211.5,244.167 211.5,221.833 211.5,199.5C 212.496,184.009 212.83,168.342 212.5,152.5C 231.187,152.753 249.854,152.42 268.5,151.5C 268.5,154.833 268.5,158.167 268.5,161.5 Z"/></g>
<g><path style="opacity:1" fill="#d9c7ef" d="M 269.5,150.5 C 269.833,150.5 270.167,150.5 270.5,150.5C 270.817,154.702 270.483,158.702 269.5,162.5C 254.5,162.5 239.5,162.5 224.5,162.5C 238.99,161.504 253.657,161.171 268.5,161.5C 269.482,158.038 269.815,154.371 269.5,150.5 Z"/></g>
<g><path style="opacity:1" fill="#e7d8ef" d="M 107.5,156.5 C 110.916,160.323 113.582,164.657 115.5,169.5C 114.325,169.719 113.325,169.386 112.5,168.5C 109.868,164.879 108.201,160.879 107.5,156.5 Z"/></g>
<g><path style="opacity:1" fill="#5a3b83" d="M 164.5,158.5 C 164.833,158.5 165.167,158.5 165.5,158.5C 165.831,187.338 165.498,216.005 164.5,244.5C 160.223,237.557 155.556,230.89 150.5,224.5C 149.601,221.605 148.267,218.938 146.5,216.5C 148.017,216.511 149.184,217.177 150,218.5C 154.306,225.636 158.806,232.636 163.5,239.5C 164.394,212.604 164.727,185.604 164.5,158.5 Z"/></g>
<g><path style="opacity:1" fill="#846fa8" d="M 179.5,150.5 C 175.5,150.5 171.5,150.5 167.5,150.5C 166.833,182.833 166.167,215.167 165.5,247.5C 164.89,246.609 164.557,245.609 164.5,244.5C 165.498,216.005 165.831,187.338 165.5,158.5C 165.5,155.5 165.5,152.5 165.5,149.5C 170.363,149.181 175.03,149.514 179.5,150.5 Z"/></g>
<g><path style="opacity:1" fill="#e1d5ea" d="M 410.5,161.5 C 412.414,164.684 413.08,168.351 412.5,172.5C 411.833,172.5 411.5,172.167 411.5,171.5C 410.949,168.193 410.616,164.86 410.5,161.5 Z"/></g>
<g><path style="opacity:1" fill="#fcfcf4" d="M 168.5,157.5 C 170.982,159.456 173.648,159.789 176.5,158.5C 177.386,159.325 177.719,160.325 177.5,161.5C 174.404,160.907 172.071,161.907 170.5,164.5C 171.5,196.361 171.667,228.028 171,259.5C 168.153,260.506 165.319,261.506 162.5,262.5C 162.298,260.011 162.798,257.677 164,255.5C 164.605,257.481 165.605,257.815 167,256.5C 167.771,253.141 168.605,249.808 169.5,246.5C 168.508,216.877 168.175,187.211 168.5,157.5 Z"/></g>
<g><path style="opacity:1" fill="#fbf4fe" d="M 269.5,150.5 C 269.815,154.371 269.482,158.038 268.5,161.5C 268.5,158.167 268.5,154.833 268.5,151.5C 249.854,152.42 231.187,152.753 212.5,152.5C 212.83,168.342 212.496,184.009 211.5,199.5C 211.5,183.167 211.5,166.833 211.5,150.5C 230.833,150.5 250.167,150.5 269.5,150.5 Z"/></g>
<g><path style="opacity:1" fill="#f3e8f8" d="M 13.5,151.5 C 12.185,156.094 11.185,160.761 10.5,165.5C 9.53178,167.607 9.19845,169.941 9.5,172.5C 8.03607,178.461 6.70274,184.461 5.5,190.5C 5.44536,183.435 6.11203,176.435 7.5,169.5C 5.79899,166.673 6.46566,164.507 9.5,163C 8.17417,159.797 8.84084,156.964 11.5,154.5C 9.72068,152.065 10.3873,151.065 13.5,151.5 Z"/></g>
<g><path style="opacity:1" fill="#411c61" d="M 310.5,164.5 C 310.5,164.167 310.5,163.833 310.5,163.5C 312.5,163.5 314.5,163.5 316.5,163.5C 316.5,195.833 316.5,228.167 316.5,260.5C 316.167,260.5 315.833,260.5 315.5,260.5C 315.667,228.832 315.5,197.165 315,165.5C 313.644,164.62 312.144,164.286 310.5,164.5 Z"/></g>
<g><path style="opacity:1" fill="#5a3c7c" d="M 399.5,132.5 C 401.128,134.988 402.462,137.655 403.5,140.5C 405.68,147.708 408.014,154.708 410.5,161.5C 410.616,164.86 410.949,168.193 411.5,171.5C 410.542,171.047 409.708,170.381 409,169.5C 408.667,165.833 408.333,162.167 408,158.5C 406.525,155.878 405.359,153.212 404.5,150.5C 402.379,145.024 400.712,139.357 399.5,133.5C 399.5,133.167 399.5,132.833 399.5,132.5 Z"/></g>
<g><path style="opacity:1" fill="#9e85b7" d="M 283.5,162.5 C 294.5,162.5 305.5,162.5 316.5,162.5C 316.833,162.5 317.167,162.5 317.5,162.5C 317.5,197.5 317.5,232.5 317.5,267.5C 316.532,265.393 316.198,263.059 316.5,260.5C 316.5,228.167 316.5,195.833 316.5,163.5C 314.5,163.5 312.5,163.5 310.5,163.5C 301.318,163.827 292.318,163.493 283.5,162.5 Z"/></g>
<g><path style="opacity:1" fill="#472671" d="M 331.5,165.5 C 332.187,199.36 332.853,233.36 333.5,267.5C 332.833,266.833 332.167,266.167 331.5,265.5C 331.5,232.167 331.5,198.833 331.5,165.5 Z"/></g>
<g><path style="opacity:1" fill="#5a2f89" d="M 365.5,150.5 C 366.802,155.036 366.802,159.703 365.5,164.5C 356.885,164.802 348.219,164.802 339.5,164.5C 339.5,196.167 339.5,227.833 339.5,259.5C 338.167,259.5 336.833,259.5 335.5,259.5C 335.833,228.16 335.5,196.826 334.5,165.5C 333.333,197.828 333.167,230.162 334,262.5C 334.689,263.357 335.522,264.023 336.5,264.5C 338.071,263.691 339.738,263.357 341.5,263.5C 341.5,265.167 341.5,266.833 341.5,268.5C 338.873,267.908 336.206,267.575 333.5,267.5C 332.853,233.36 332.187,199.36 331.5,165.5C 331.5,164.5 331.5,163.5 331.5,162.5C 342.5,162.5 353.5,162.5 364.5,162.5C 365.483,158.702 365.817,154.702 365.5,150.5 Z"/></g>
<g><path style="opacity:1" fill="#775b98" d="M 224.5,162.5 C 239.5,162.5 254.5,162.5 269.5,162.5C 269.5,162.833 269.5,163.167 269.5,163.5C 254.833,163.5 240.167,163.5 225.5,163.5C 225.5,175.833 225.5,188.167 225.5,200.5C 239.344,200.171 253.01,200.504 266.5,201.5C 252.5,201.5 238.5,201.5 224.5,201.5C 224.5,188.5 224.5,175.5 224.5,162.5 Z"/></g>
<g><path style="opacity:1" fill="#5a2c89" d="M 310.5,164.5 C 312.144,164.286 313.644,164.62 315,165.5C 315.5,197.165 315.667,228.832 315.5,260.5C 314.603,261.598 313.77,261.598 313,260.5C 312.888,263.447 311.388,264.78 308.5,264.5C 308.383,262.516 309.05,260.85 310.5,259.5C 311.667,231.173 311.833,202.839 311,174.5C 307.561,170.495 308.061,169.662 312.5,172C 311.5,170.333 310.167,169 308.5,168C 309.085,166.698 309.751,165.531 310.5,164.5 Z"/></g>
<g><path style="opacity:1" fill="#e6d5ef" d="M 283.5,150.5 C 310.5,150.5 337.5,150.5 364.5,150.5C 364.5,154.5 364.5,158.5 364.5,162.5C 353.5,162.5 342.5,162.5 331.5,162.5C 331.5,163.5 331.5,164.5 331.5,165.5C 331.5,198.833 331.5,232.167 331.5,265.5C 331.5,266.833 330.833,267.5 329.5,267.5C 325.5,267.5 321.5,267.5 317.5,267.5C 317.5,232.5 317.5,197.5 317.5,162.5C 318.498,196.663 318.832,230.996 318.5,265.5C 321.545,265.296 324.379,265.296 327,265.5C 328.117,264.051 328.784,262.384 329,260.5C 329.333,227.833 329.667,195.167 330,162.5C 341.085,161.513 352.252,161.179 363.5,161.5C 362.373,158.143 362.373,154.809 363.5,151.5C 337.498,151.333 311.498,151.5 285.5,152C 284.549,155.057 284.216,158.223 284.5,161.5C 295.346,161.172 306.013,161.506 316.5,162.5C 305.5,162.5 294.5,162.5 283.5,162.5C 283.5,158.5 283.5,154.5 283.5,150.5 Z"/></g>
<g><path style="opacity:1" fill="#fcfcfb" d="M 317.5,162.5 C 317.167,162.5 316.833,162.5 316.5,162.5C 306.013,161.506 295.346,161.172 284.5,161.5C 284.216,158.223 284.549,155.057 285.5,152C 311.498,151.5 337.498,151.333 363.5,151.5C 362.373,154.809 362.373,158.143 363.5,161.5C 352.252,161.179 341.085,161.513 330,162.5C 329.667,195.167 329.333,227.833 329,260.5C 328.784,262.384 328.117,264.051 327,265.5C 324.379,265.296 321.545,265.296 318.5,265.5C 318.832,230.996 318.498,196.663 317.5,162.5 Z"/></g>
<g><path style="opacity:1" fill="#503e65" d="M 103.5,175.5 C 102.5,175.5 101.5,175.5 100.5,175.5C 100.737,174.209 100.404,173.209 99.5,172.5C 99.6716,171.508 99.3382,170.842 98.5,170.5C 98.3505,169.448 98.5172,168.448 99,167.5C 100.777,170.059 102.277,172.726 103.5,175.5 Z"/></g>
<g><path style="opacity:1" fill="#e4d7f1" d="M 167.5,151.5 C 167.5,151.167 167.5,150.833 167.5,150.5C 171.5,150.5 175.5,150.5 179.5,150.5C 180.167,150.5 180.5,150.833 180.5,151.5C 180.667,189.835 180.5,228.168 180,266.5C 179.617,267.056 179.117,267.389 178.5,267.5C 173.125,267.828 167.792,267.495 162.5,266.5C 161.873,265.583 161.539,264.583 161.5,263.5C 166.932,265.281 172.599,265.948 178.5,265.5C 178.5,227.5 178.5,189.5 178.5,151.5C 174.833,151.5 171.167,151.5 167.5,151.5 Z"/></g>
<g><path style="opacity:1" fill="#3c1767" d="M 269.5,163.5 C 255.343,164.496 241.01,164.829 226.5,164.5C 226.5,176.167 226.5,187.833 226.5,199.5C 238.838,199.667 251.171,199.5 263.5,199C 264.563,197.812 265.897,197.312 267.5,197.5C 267.5,198.833 267.5,200.167 267.5,201.5C 267.167,201.5 266.833,201.5 266.5,201.5C 253.01,200.504 239.344,200.171 225.5,200.5C 225.5,188.167 225.5,175.833 225.5,163.5C 240.167,163.5 254.833,163.5 269.5,163.5 Z"/></g>
<g><path style="opacity:1" fill="#8467a4" d="M 412.5,175.5 C 413.093,178.5 413.926,181.5 415,184.5C 415.828,199.339 415.661,214.006 414.5,228.5C 414.902,210.776 414.236,193.109 412.5,175.5 Z"/></g>
<g><path style="opacity:1" fill="#8369a0" d="M 9.5,172.5 C 10.0722,180.087 9.23886,187.42 7,194.5C 6.50014,205.828 6.33348,217.162 6.5,228.5C 6.16667,228.5 5.83333,228.5 5.5,228.5C 5.5,215.833 5.5,203.167 5.5,190.5C 6.70274,184.461 8.03607,178.461 9.5,172.5 Z"/></g>
<g><path style="opacity:1" fill="#644890" d="M 99.5,172.5 C 100.404,173.209 100.737,174.209 100.5,175.5C 101.5,175.5 102.5,175.5 103.5,175.5C 104.488,176.795 105.488,178.128 106.5,179.5C 106.5,179.833 106.5,180.167 106.5,180.5C 105.5,180.5 104.5,180.5 103.5,180.5C 103.719,179.325 103.386,178.325 102.5,177.5C 101.196,207.037 101.196,236.703 102.5,266.5C 101.5,266.5 100.5,266.5 99.5,266.5C 99.5,235.167 99.5,203.833 99.5,172.5 Z"/></g>
<g><path style="opacity:1" fill="#d8c9ec" d="M 103.5,149.5 C 103.5,149.833 103.5,150.167 103.5,150.5C 97.8333,150.5 92.1667,150.5 86.5,150.5C 86.5,189.167 86.5,227.833 86.5,266.5C 90.5,266.5 94.5,266.5 98.5,266.5C 98.5,234.5 98.5,202.5 98.5,170.5C 99.3382,170.842 99.6716,171.508 99.5,172.5C 99.5,203.833 99.5,235.167 99.5,266.5C 94.8333,267.833 90.1667,267.833 85.5,266.5C 85.5,227.5 85.5,188.5 85.5,149.5C 91.5,149.5 97.5,149.5 103.5,149.5 Z"/></g>
<g><path style="opacity:1" fill="#fbfdf6" d="M 90.5,180.5 C 91.4978,206.661 91.8312,232.995 91.5,259.5C 90.5,259.5 89.5,259.5 88.5,259.5C 87.8563,232.94 88.523,206.606 90.5,180.5 Z"/></g>
<g><path style="opacity:1" fill="#e5dbfb" d="M 167.5,150.5 C 167.5,150.833 167.5,151.167 167.5,151.5C 167.5,183.833 167.5,216.167 167.5,248.5C 166.508,248.672 165.842,248.338 165.5,247.5C 166.167,215.167 166.833,182.833 167.5,150.5 Z"/></g>
<g><path style="opacity:1" fill="#f4edf7" d="M 117.5,172.5 C 118.5,172.833 119.167,173.5 119.5,174.5C 125.684,184.881 132.35,194.881 139.5,204.5C 141.008,209.002 143.341,213.002 146.5,216.5C 148.267,218.938 149.601,221.605 150.5,224.5C 148.61,224.703 147.11,224.037 146,222.5C 142.307,217.279 138.973,211.279 136,204.5C 135.086,203.346 134.253,203.513 133.5,205C 134.515,206.696 135.015,208.863 135,211.5C 133.283,207.725 131.783,208.058 130.5,212.5C 132.799,217.292 135.299,221.959 138,226.5C 138.333,226.167 138.667,225.833 139,225.5C 140.781,229.093 142.281,232.76 143.5,236.5C 131.176,217.861 118.843,199.194 106.5,180.5C 106.5,180.167 106.5,179.833 106.5,179.5C 108.117,180.038 109.784,180.371 111.5,180.5C 111.5,181.833 111.5,183.167 111.5,184.5C 112.675,184.281 113.675,184.614 114.5,185.5C 117.868,194.463 122.701,202.463 129,209.5C 129.667,207.833 129.667,206.167 129,204.5C 127.167,203.333 125.667,201.833 124.5,200C 125.833,199.667 127.167,199.333 128.5,199C 127.5,198 126.5,197 125.5,196C 127.418,194.23 127.918,192.063 127,189.5C 124.616,185.276 121.783,181.276 118.5,177.5C 117.548,175.955 117.215,174.288 117.5,172.5 Z"/></g>
<g><path style="opacity:1" fill="#634788" d="M 103.5,149.5 C 97.5,149.5 91.5,149.5 85.5,149.5C 85.5,188.5 85.5,227.5 85.5,266.5C 84.3355,227.335 84.1688,188.002 85,148.5C 88.0811,147.854 91.2478,147.521 94.5,147.5C 97.9134,147.517 100.913,148.184 103.5,149.5 Z"/></g>
<g><path style="opacity:1" fill="#fcfbf3" d="M 92.5,162.5 C 93.4593,168.562 94.9593,174.562 97,180.5C 97.1664,285.827 96.333,285.827 94.5,180.5C 92.5292,175.953 90.5292,171.286 88.5,166.5C 89.3681,164.603 90.7014,163.27 92.5,162.5 Z"/></g>
<g><path style="opacity:1" fill="#5d4181" d="M 119.5,174.5 C 121.74,175.568 123.574,177.234 125,179.5C 128.253,185.008 131.753,190.341 135.5,195.5C 137.12,198.404 138.453,201.404 139.5,204.5C 132.35,194.881 125.684,184.881 119.5,174.5 Z"/></g>
<g><path style="opacity:1" fill="#573283" d="M 404.5,150.5 C 405.359,153.212 406.525,155.878 408,158.5C 408.333,162.167 408.667,165.833 409,169.5C 409.708,170.381 410.542,171.047 411.5,171.5C 411.5,172.167 411.833,172.5 412.5,172.5C 412.5,173.5 412.5,174.5 412.5,175.5C 414.236,193.109 414.902,210.776 414.5,228.5C 413.906,234.51 413.24,240.51 412.5,246.5C 411.833,247.5 411.167,248.5 410.5,249.5C 411.426,237.165 412.426,224.832 413.5,212.5C 413.292,200.126 412.459,187.793 411,175.5C 410.74,173.382 409.74,171.716 408,170.5C 407.379,163.671 406.213,157.005 404.5,150.5 Z"/></g>
<g><path style="opacity:1" fill="#c0acd6" d="M 224.5,201.5 C 238.5,201.5 252.5,201.5 266.5,201.5C 266.833,201.5 267.167,201.5 267.5,201.5C 267.5,202.5 267.5,203.5 267.5,204.5C 267.5,207.833 267.5,211.167 267.5,214.5C 253.5,214.5 239.5,214.5 225.5,214.5C 225.167,214.5 224.833,214.5 224.5,214.5C 238.323,213.504 252.323,213.171 266.5,213.5C 266.5,209.833 266.5,206.167 266.5,202.5C 252.323,202.829 238.323,202.496 224.5,201.5 Z"/></g>
<g><path style="opacity:1" fill="#6b4696" d="M 13.5,159.5 C 13.5,161.5 13.5,163.5 13.5,165.5C 19.7863,166.315 21.1196,169.481 17.5,175C 18.4061,176.699 18.7394,178.533 18.5,180.5C 17.5,180.5 16.5,180.5 15.5,180.5C 15.6816,178.409 15.3482,176.409 14.5,174.5C 13.3687,173.396 12.5354,173.729 12,175.5C 11.6268,181.567 10.7934,187.567 9.5,193.5C 10.7711,206.495 10.7711,219.495 9.5,232.5C 8.85706,230.924 7.85706,229.59 6.5,228.5C 6.33348,217.162 6.50014,205.828 7,194.5C 9.23886,187.42 10.0722,180.087 9.5,172.5C 9.19845,169.941 9.53178,167.607 10.5,165.5C 12.0603,163.844 13.0603,161.844 13.5,159.5 Z"/></g>
<g><path style="opacity:1" fill="#4d2d77" d="M 267.5,204.5 C 268.837,206.349 269.503,208.516 269.5,211C 269.95,213.626 268.95,215.126 266.5,215.5C 252.833,215.5 239.167,215.5 225.5,215.5C 225.5,215.167 225.5,214.833 225.5,214.5C 239.5,214.5 253.5,214.5 267.5,214.5C 267.5,211.167 267.5,207.833 267.5,204.5 Z"/></g>
<g><path style="opacity:1" fill="#401976" d="M 225.5,215.5 C 239.167,215.5 252.833,215.5 266.5,215.5C 253.344,216.496 240.01,216.829 226.5,216.5C 226.5,217.833 226.5,219.167 226.5,220.5C 226.167,220.5 225.833,220.5 225.5,220.5C 225.5,218.833 225.5,217.167 225.5,215.5 Z"/></g>
<g><path style="opacity:1" fill="#fbfbf9" d="M 150.5,224.5 C 150.707,227.239 151.707,229.573 153.5,231.5C 152.698,234.449 152.364,237.449 152.5,240.5C 151.07,240.421 149.736,240.754 148.5,241.5C 147.92,238.621 146.253,236.954 143.5,236.5C 142.281,232.76 140.781,229.093 139,225.5C 138.667,225.833 138.333,226.167 138,226.5C 135.299,221.959 132.799,217.292 130.5,212.5C 131.783,208.058 133.283,207.725 135,211.5C 135.015,208.863 134.515,206.696 133.5,205C 134.253,203.513 135.086,203.346 136,204.5C 138.973,211.279 142.307,217.279 146,222.5C 147.11,224.037 148.61,224.703 150.5,224.5 Z"/></g>
<g><path style="opacity:1" fill="#6c44a2" d="M 197.5,192.5 C 199.411,193.075 201.078,194.075 202.5,195.5C 202.5,195.833 202.5,196.167 202.5,196.5C 202.83,209.884 202.163,223.217 200.5,236.5C 201.167,241.833 201.833,247.167 202.5,252.5C 197.575,271.408 196.575,271.075 199.5,251.5C 198.915,246.489 198.249,241.489 197.5,236.5C 200.099,221.704 200.099,207.038 197.5,192.5 Z"/></g>
<g><path style="opacity:1" fill="#513374" d="M 225.5,220.5 C 225.833,220.5 226.167,220.5 226.5,220.5C 227.5,220.833 228.167,221.5 228.5,222.5C 226.66,232.35 225.993,242.35 226.5,252.5C 227.5,252.5 228.5,252.5 229.5,252.5C 229.5,252.833 229.5,253.167 229.5,253.5C 228.167,253.5 226.833,253.5 225.5,253.5C 225.5,242.5 225.5,231.5 225.5,220.5 Z"/></g>
<g><path style="opacity:1" fill="#f7f2f9" d="M 150.5,224.5 C 155.556,230.89 160.223,237.557 164.5,244.5C 164.557,245.609 164.89,246.609 165.5,247.5C 165.842,248.338 166.508,248.672 167.5,248.5C 167.716,250.681 166.883,252.347 165,253.5C 162.373,251.273 159.54,249.773 156.5,249C 157.113,251.147 157.779,253.314 158.5,255.5C 161.106,257.418 162.106,260.084 161.5,263.5C 157.167,257.5 152.833,251.5 148.5,245.5C 147.087,242.339 145.42,239.339 143.5,236.5C 146.253,236.954 147.92,238.621 148.5,241.5C 149.736,240.754 151.07,240.421 152.5,240.5C 152.364,237.449 152.698,234.449 153.5,231.5C 151.707,229.573 150.707,227.239 150.5,224.5 Z"/></g>
<g><path style="opacity:1" fill="#6d449d" d="M 228.5,222.5 C 232.246,225.41 235.413,228.743 238,232.5C 244.457,238.959 250.957,245.292 257.5,251.5C 248.19,252.498 238.857,252.832 229.5,252.5C 228.5,252.5 227.5,252.5 226.5,252.5C 225.993,242.35 226.66,232.35 228.5,222.5 Z"/></g>
<g><path style="opacity:1" fill="#6d4b95" d="M 6.5,228.5 C 7.85706,229.59 8.85706,230.924 9.5,232.5C 9.82596,238.602 10.6593,244.602 12,250.5C 12.7811,249.271 13.2811,247.938 13.5,246.5C 11.9343,240.912 11.4343,235.245 12,229.5C 13.0113,228.663 14.1779,228.33 15.5,228.5C 15.5,233.833 15.5,239.167 15.5,244.5C 16.5,244.5 17.5,244.5 18.5,244.5C 19.2854,248.64 18.1188,251.973 15,254.5C 14.8333,255.667 14.6667,256.833 14.5,258C 16.7377,264.592 18.071,271.425 18.5,278.5C 11.8846,262.614 7.88459,245.947 6.5,228.5 Z"/></g>
<g><path style="opacity:1" fill="#796097" d="M 224.5,214.5 C 224.833,214.5 225.167,214.5 225.5,214.5C 225.5,214.833 225.5,215.167 225.5,215.5C 225.5,217.167 225.5,218.833 225.5,220.5C 225.5,231.5 225.5,242.5 225.5,253.5C 226.833,253.5 228.167,253.5 229.5,253.5C 244.538,252.85 259.205,253.517 273.5,255.5C 273.5,259.5 273.5,263.5 273.5,267.5C 273.167,267.5 272.833,267.5 272.5,267.5C 272.5,263.167 272.5,258.833 272.5,254.5C 256.5,254.5 240.5,254.5 224.5,254.5C 224.5,241.167 224.5,227.833 224.5,214.5 Z"/></g>
<g><path style="opacity:1" fill="#624588" d="M 45.5,252.5 C 43.9084,255.966 43.2417,259.633 43.5,263.5C 41.5869,260.665 40.5869,257.332 40.5,253.5C 42.2161,253.371 43.8828,253.038 45.5,252.5 Z"/></g>
<g><path style="opacity:1" fill="#d2bedf" d="M 412.5,246.5 C 412.468,250.983 411.468,254.983 409.5,258.5C 409.963,255.518 410.296,252.518 410.5,249.5C 411.167,248.5 411.833,247.5 412.5,246.5 Z"/></g>
<g><path style="opacity:1" fill="#4c2a71" d="M 273.5,255.5 C 274.376,255.369 275.043,255.702 275.5,256.5C 274.567,260.429 274.234,264.429 274.5,268.5C 273.833,268.5 273.5,268.167 273.5,267.5C 273.5,263.5 273.5,259.5 273.5,255.5 Z"/></g>
<g><path style="opacity:1" fill="#4e2e77" d="M 410.5,249.5 C 410.296,252.518 409.963,255.518 409.5,258.5C 409.5,259.167 409.5,259.833 409.5,260.5C 407.528,263.084 406.528,266.084 406.5,269.5C 405.566,270.568 405.232,271.901 405.5,273.5C 405.167,273.5 404.833,273.5 404.5,273.5C 405.828,266.511 407.161,259.511 408.5,252.5C 409.176,251.398 409.842,250.398 410.5,249.5 Z"/></g>
<g><path style="opacity:1" fill="#644588" d="M 148.5,245.5 C 152.833,251.5 157.167,257.5 161.5,263.5C 161.539,264.583 161.873,265.583 162.5,266.5C 167.792,267.495 173.125,267.828 178.5,267.5C 173.015,268.652 167.349,268.818 161.5,268C 160.333,267.5 159.5,266.667 159,265.5C 158.667,265.833 158.333,266.167 158,266.5C 157.441,263.741 155.941,261.741 153.5,260.5C 152.686,258.234 152.186,255.9 152,253.5C 150.175,252.897 148.341,252.23 146.5,251.5C 148.104,249.821 148.771,247.821 148.5,245.5 Z"/></g>
<g><path style="opacity:1" fill="#dbc8ef" d="M 210.5,149.5 C 230.34,149.17 250.007,149.503 269.5,150.5C 250.167,150.5 230.833,150.5 211.5,150.5C 211.5,166.833 211.5,183.167 211.5,199.5C 211.5,221.833 211.5,244.167 211.5,266.5C 231.5,266.5 251.5,266.5 271.5,266.5C 271.5,262.833 271.5,259.167 271.5,255.5C 255.658,255.83 239.991,255.496 224.5,254.5C 240.5,254.5 256.5,254.5 272.5,254.5C 272.5,258.833 272.5,263.167 272.5,267.5C 272.167,267.5 271.833,267.5 271.5,267.5C 251.167,267.5 230.833,267.5 210.5,267.5C 210.5,228.833 210.5,190.167 210.5,151.5C 210.5,150.833 210.5,150.167 210.5,149.5 Z"/></g>
<g><path style="opacity:1" fill="#bfaad3" d="M 409.5,260.5 C 409.472,263.916 408.472,266.916 406.5,269.5C 406.528,266.084 407.528,263.084 409.5,260.5 Z"/></g>
<g><path style="opacity:1" fill="#f1e3f7" d="M 56.5,252.5 C 46.5404,251.57 43.5404,255.903 47.5,265.5C 51.2469,268.264 54.4136,267.598 57,263.5C 57.2735,261.671 58.1068,260.171 59.5,259C 58.6028,256.913 57.9361,254.746 57.5,252.5C 58.1667,252.833 58.8333,253.167 59.5,253.5C 62.8929,259.253 61.8929,264.087 56.5,268C 53.5,268.667 50.5,268.667 47.5,268C 46.2668,266.333 44.9335,264.833 43.5,263.5C 43.2417,259.633 43.9084,255.966 45.5,252.5C 47.3915,251.149 49.5582,250.482 52,250.5C 54.0081,250.307 55.5081,250.974 56.5,252.5 Z"/></g>
<g><path style="opacity:1" fill="#fcfaf9" d="M 56.5,252.5 C 56.8333,252.5 57.1667,252.5 57.5,252.5C 57.9361,254.746 58.6028,256.913 59.5,259C 58.1068,260.171 57.2735,261.671 57,263.5C 54.4136,267.598 51.2469,268.264 47.5,265.5C 43.5404,255.903 46.5404,251.57 56.5,252.5 Z"/></g>
<g><path style="opacity:1" fill="#5e4183" d="M 210.5,267.5 C 230.833,267.5 251.167,267.5 271.5,267.5C 271.611,268.117 271.944,268.617 272.5,269C 251.675,268.975 231.009,268.475 210.5,267.5 Z"/></g>
<g><path style="opacity:1" fill="#401c66" d="M 317.5,267.5 C 321.5,267.5 325.5,267.5 329.5,267.5C 327.952,268.794 325.952,269.461 323.5,269.5C 321.048,269.461 319.048,268.794 317.5,267.5 Z"/></g>
<g><path style="opacity:1" fill="#664987" d="M 59.5,253.5 C 62.2231,255.104 63.5564,257.604 63.5,261C 63.2114,263.105 62.3781,264.938 61,266.5C 58.8762,267.622 57.0429,269.122 55.5,271C 49.1342,272.225 45.1342,269.725 43.5,263.5C 44.9335,264.833 46.2668,266.333 47.5,268C 50.5,268.667 53.5,268.667 56.5,268C 61.8929,264.087 62.8929,259.253 59.5,253.5 Z"/></g>
<g><path style="opacity:1" fill="#f1e6f7" d="M 5.5,228.5 C 5.83333,228.5 6.16667,228.5 6.5,228.5C 7.88459,245.947 11.8846,262.614 18.5,278.5C 19.5209,283.249 20.8542,287.916 22.5,292.5C 20.7708,291.883 19.2708,290.883 18,289.5C 17.6886,288.258 18.1886,287.258 19.5,286.5C 18.675,285.614 17.675,285.281 16.5,285.5C 15.1863,279.905 14.0197,274.238 13,268.5C 11.4815,268.943 10.3148,268.276 9.5,266.5C 10.1469,260.715 9.31353,255.048 7,249.5C 6.56592,242.488 6.06592,235.488 5.5,228.5 Z"/></g>
<g><path style="opacity:1" fill="#bba1d9" d="M 404.5,273.5 C 404.833,273.5 405.167,273.5 405.5,273.5C 405.634,275.292 405.301,276.958 404.5,278.5C 403.833,279.5 403.167,280.5 402.5,281.5C 402.694,278.67 403.361,276.004 404.5,273.5 Z"/></g>
<g><path style="opacity:1" fill="#f0e3f6" d="M 404.5,278.5 C 404.732,282.457 403.899,286.124 402,289.5C 398.774,293.286 396.607,297.619 395.5,302.5C 395.043,303.298 394.376,303.631 393.5,303.5C 393.5,302.833 393.5,302.167 393.5,301.5C 394.906,301.027 395.573,300.027 395.5,298.5C 397.219,293.807 398.886,289.14 400.5,284.5C 401.906,284.027 402.573,283.027 402.5,281.5C 403.167,280.5 403.833,279.5 404.5,278.5 Z"/></g>
<g><path style="opacity:1" fill="#593386" d="M 400.5,284.5 C 398.886,289.14 397.219,293.807 395.5,298.5C 394.094,298.973 393.427,299.973 393.5,301.5C 393.5,302.167 393.5,302.833 393.5,303.5C 392.542,303.953 391.708,304.619 391,305.5C 388.678,310.636 386.178,315.636 383.5,320.5C 382.272,321.306 381.272,322.306 380.5,323.5C 380.338,321.473 380.505,319.473 381,317.5C 382.887,315.974 383.887,313.974 384,311.5C 384.908,309.561 386.408,308.561 388.5,308.5C 388.5,306.833 388.5,305.167 388.5,303.5C 389.675,303.719 390.675,303.386 391.5,302.5C 392.214,300.189 393.214,298.022 394.5,296C 392.723,291.498 391.056,286.998 389.5,282.5C 390.675,282.281 391.675,282.614 392.5,283.5C 393.688,285.988 395.021,288.322 396.5,290.5C 397.303,287.978 398.636,285.978 400.5,284.5 Z"/></g>
<g><path style="opacity:1" fill="#6f4d95" d="M 18.5,278.5 C 20.7306,280.076 22.3972,282.243 23.5,285C 24.7659,285.309 25.9326,285.809 27,286.5C 27.4992,291.155 27.6658,295.821 27.5,300.5C 26.5389,297.945 25.2055,295.612 23.5,293.5C 23.5,292.833 23.1667,292.5 22.5,292.5C 20.8542,287.916 19.5209,283.249 18.5,278.5 Z"/></g>
<g><path style="opacity:1" fill="#c2b3d9" d="M 23.5,293.5 C 25.2055,295.612 26.5389,297.945 27.5,300.5C 28.1098,301.391 28.4431,302.391 28.5,303.5C 25.711,300.844 24.0444,297.511 23.5,293.5 Z"/></g>
<g><path style="opacity:1" fill="#a892bf" d="M 395.5,298.5 C 395.573,300.027 394.906,301.027 393.5,301.5C 393.427,299.973 394.094,298.973 395.5,298.5 Z"/></g>
<g><path style="opacity:1" fill="#e8dbef" d="M 393.5,303.5 C 392.272,306.334 390.939,309.167 389.5,312C 390.451,312.718 390.617,313.551 390,314.5C 388.034,316.82 385.867,318.82 383.5,320.5C 386.178,315.636 388.678,310.636 391,305.5C 391.708,304.619 392.542,303.953 393.5,303.5 Z"/></g>
<g><path style="opacity:1" fill="#ebe0ef" d="M 28.5,303.5 C 30.2503,304.659 31.2503,306.326 31.5,308.5C 33.1961,311.85 34.8627,315.183 36.5,318.5C 34.9102,318.372 33.5769,317.705 32.5,316.5C 30.7581,312.275 29.4247,307.942 28.5,303.5 Z"/></g>
<g><path style="opacity:1" fill="#6d4f8f" d="M 31.5,308.5 C 36.286,311.616 40.4527,315.616 44,320.5C 44.5257,323.272 45.3591,325.938 46.5,328.5C 48.4505,330.092 49.7838,332.092 50.5,334.5C 51.325,335.386 52.325,335.719 53.5,335.5C 53.5,336.833 53.5,338.167 53.5,339.5C 50.8435,337.344 48.3435,335.011 46,332.5C 43.314,327.386 40.1474,322.719 36.5,318.5C 34.8627,315.183 33.1961,311.85 31.5,308.5 Z"/></g>
<g><path style="opacity:1" fill="#ebe0f2" d="M 383.5,320.5 C 383.559,323.049 382.559,325.049 380.5,326.5C 381.326,327.451 381.492,328.451 381,329.5C 377.202,331.747 374.869,335.08 374,339.5C 372.908,337.069 371.741,337.069 370.5,339.5C 370.5,338.833 370.5,338.167 370.5,337.5C 374.221,333.112 377.555,328.445 380.5,323.5C 381.272,322.306 382.272,321.306 383.5,320.5 Z"/></g>
<g><path style="opacity:1" fill="#5b3187" d="M 380.5,323.5 C 377.555,328.445 374.221,333.112 370.5,337.5C 368.11,338.891 366.443,340.891 365.5,343.5C 365.5,344.167 365.167,344.5 364.5,344.5C 364.433,342.599 364.767,340.766 365.5,339C 365.167,338.5 364.833,338 364.5,337.5C 363.232,338.428 361.899,338.595 360.5,338C 362.163,333.471 361.496,329.305 358.5,325.5C 360.006,324.253 361.506,324.253 363,325.5C 364.993,327.818 366.159,330.484 366.5,333.5C 369.323,333.975 371.323,332.975 372.5,330.5C 371.246,328.666 370.579,326.666 370.5,324.5C 371.5,324.5 372.5,324.5 373.5,324.5C 373.281,325.675 373.614,326.675 374.5,327.5C 376.133,325.497 378.133,324.164 380.5,323.5 Z"/></g>
<g><path style="opacity:1" fill="#b7a2ce" d="M 370.5,337.5 C 370.5,338.167 370.5,338.833 370.5,339.5C 368.821,340.916 367.154,342.25 365.5,343.5C 366.443,340.891 368.11,338.891 370.5,337.5 Z"/></g>
<g><path style="opacity:1" fill="#6c5089" d="M 53.5,340.5 C 54.8333,340.5 56.1667,340.5 57.5,340.5C 57.238,341.978 57.5713,343.311 58.5,344.5C 62.3272,346.501 64.9939,349.501 66.5,353.5C 63.5,350.833 60.5,348.167 57.5,345.5C 55.4131,344.415 54.0798,342.749 53.5,340.5 Z"/></g>
<g><path style="opacity:1" fill="#d2c5df" d="M 57.5,345.5 C 60.5,348.167 63.5,350.833 66.5,353.5C 66.8333,354.167 67.1667,354.833 67.5,355.5C 65.264,354.611 63.264,353.278 61.5,351.5C 60.914,351.709 60.414,352.043 60,352.5C 59.6162,349.94 58.7829,347.606 57.5,345.5 Z"/></g>
<g><path style="opacity:1" fill="#b8a7cd" d="M 67.5,355.5 C 70.8333,358.167 73.8333,361.167 76.5,364.5C 72.5,362.5 69.5,359.5 67.5,355.5 Z"/></g>
<g><path style="opacity:1" fill="#bfb1d3" d="M 354.5,355.5 C 353.415,357.587 351.749,358.92 349.5,359.5C 350.167,358.5 350.833,357.5 351.5,356.5C 352.391,355.89 353.391,355.557 354.5,355.5 Z"/></g>
<g><path style="opacity:1" fill="#f3e9f7" d="M 363.5,346.5 C 363.414,348.677 362.747,350.677 361.5,352.5C 356.906,357.48 351.906,361.98 346.5,366C 343.94,366.384 341.606,367.217 339.5,368.5C 343.252,365.959 346.585,362.959 349.5,359.5C 351.749,358.92 353.415,357.587 354.5,355.5C 357.167,352.167 360.167,349.167 363.5,346.5 Z"/></g>
<g><path style="opacity:1" fill="#694b8c" d="M 351.5,356.5 C 350.833,357.5 350.167,358.5 349.5,359.5C 346.585,362.959 343.252,365.959 339.5,368.5C 338.078,369.925 336.411,370.925 334.5,371.5C 334.709,370.078 335.209,368.745 336,367.5C 339.799,364.703 343.299,361.536 346.5,358C 348.025,356.991 349.692,356.491 351.5,356.5 Z"/></g>
<g><path style="opacity:1" fill="#6c4e92" d="M 77.5,364.5 C 78.8734,364.343 80.2068,364.51 81.5,365C 83.1424,368.676 85.8091,370.676 89.5,371C 87.6037,369.935 87.437,369.102 89,368.5C 96.1477,377.574 105.314,383.741 116.5,387C 119.68,388.349 122.013,390.516 123.5,393.5C 120.428,391.825 117.095,390.492 113.5,389.5C 111.579,388.637 109.579,387.971 107.5,387.5C 96.9522,380.628 86.9522,372.961 77.5,364.5 Z"/></g>
<g><path style="opacity:1" fill="#b3a1c5" d="M 320.5,382.5 C 317.572,384.087 314.906,386.087 312.5,388.5C 311.833,388.5 311.167,388.5 310.5,388.5C 313.061,385.283 316.395,383.283 320.5,382.5 Z"/></g>
<g><path style="opacity:1" fill="#f1e7f6" d="M 107.5,387.5 C 109.579,387.971 111.579,388.637 113.5,389.5C 117.106,393.601 121.772,395.935 127.5,396.5C 133.515,399.384 139.515,402.05 145.5,404.5C 142.379,404.462 139.379,403.795 136.5,402.5C 134.261,403.636 132.594,403.303 131.5,401.5C 130.264,402.246 128.93,402.579 127.5,402.5C 127.5,401.5 127.5,400.5 127.5,399.5C 121.444,396.97 115.444,394.137 109.5,391C 108.177,390.184 107.511,389.017 107.5,387.5 Z"/></g>
<g><path style="opacity:1" fill="#eee3f3" d="M 310.5,388.5 C 311.167,388.5 311.833,388.5 312.5,388.5C 308.97,392.83 304.304,394.83 298.5,394.5C 301.98,391.615 305.98,389.615 310.5,388.5 Z"/></g>
<g><path style="opacity:1" fill="#6b4e90" d="M 123.5,393.5 C 132.205,395.597 140.539,398.764 148.5,403C 151.5,403.333 154.5,403.667 157.5,404C 159.063,404.759 160.063,405.926 160.5,407.5C 159.5,407.5 158.5,407.5 157.5,407.5C 153.615,406.095 149.615,405.095 145.5,404.5C 139.515,402.05 133.515,399.384 127.5,396.5C 126.41,395.143 125.076,394.143 123.5,393.5 Z"/></g>
<g><path style="opacity:1" fill="#a891c0" d="M 113.5,389.5 C 117.095,390.492 120.428,391.825 123.5,393.5C 125.076,394.143 126.41,395.143 127.5,396.5C 121.772,395.935 117.106,393.601 113.5,389.5 Z"/></g>
<g><path style="opacity:1" fill="#715292" d="M 282.5,400.5 C 281.5,401.167 280.5,401.833 279.5,402.5C 276.562,402.977 273.896,403.977 271.5,405.5C 265.813,406.842 260.146,408.176 254.5,409.5C 254.389,408.883 254.056,408.383 253.5,408C 258.511,405.714 263.844,404.381 269.5,404C 271.976,402.842 274.143,401.342 276,399.5C 278.099,400.287 280.266,400.62 282.5,400.5 Z"/></g>
<g><path style="opacity:1" fill="#e6daee" d="M 298.5,394.5 C 296.859,396.258 294.859,397.758 292.5,399C 293.654,399.914 293.487,400.747 292,401.5C 291.107,400.919 290.107,400.585 289,400.5C 285.888,401.483 282.722,402.15 279.5,402.5C 280.5,401.833 281.5,401.167 282.5,400.5C 287.809,398.515 293.143,396.515 298.5,394.5 Z"/></g>
<g><path style="opacity:1" fill="#f2e5f6" d="M 271.5,405.5 C 270.791,406.404 269.791,406.737 268.5,406.5C 268.688,408.103 268.188,409.437 267,410.5C 262.625,410.242 258.125,410.242 253.5,410.5C 253.5,410.167 253.5,409.833 253.5,409.5C 253.833,409.5 254.167,409.5 254.5,409.5C 260.146,408.176 265.813,406.842 271.5,405.5 Z"/></g>
<g><path style="opacity:1" fill="#e7d8f1" d="M 157.5,407.5 C 158.5,407.5 159.5,407.5 160.5,407.5C 170.729,410.295 181.062,412.628 191.5,414.5C 183.072,414.159 174.739,413.159 166.5,411.5C 165.914,411.709 165.414,412.043 165,412.5C 162.86,410.192 160.36,408.526 157.5,407.5 Z"/></g>
<g><path style="opacity:1" fill="#9376ac" d="M 253.5,409.5 C 253.5,409.833 253.5,410.167 253.5,410.5C 248.853,411.296 244.186,411.963 239.5,412.5C 239.611,411.883 239.944,411.383 240.5,411C 244.832,410.417 249.165,409.917 253.5,409.5 Z"/></g>
<g><path style="opacity:1" fill="#745498" d="M 229.5,412.5 C 219.219,414.476 208.552,415.143 197.5,414.5C 195.5,414.5 193.5,414.5 191.5,414.5C 181.062,412.628 170.729,410.295 160.5,407.5C 162.696,407.41 164.863,407.077 167,406.5C 177.106,408.601 187.273,410.434 197.5,412C 208.161,412.5 218.828,412.667 229.5,412.5 Z"/></g>
<g><path style="opacity:1" fill="#ecdef5" d="M 253.5,410.5 C 253.082,411.222 252.416,411.722 251.5,412C 233.462,415.408 215.462,416.241 197.5,414.5C 208.552,415.143 219.219,414.476 229.5,412.5C 232.833,412.5 236.167,412.5 239.5,412.5C 244.186,411.963 248.853,411.296 253.5,410.5 Z"/></g>
</svg>
