<?xml version="1.0" encoding="UTF-8"?>
<!DOCTYPE svg PUBLIC "-//W3C//DTD SVG 1.1//EN" "http://www.w3.org/Graphics/SVG/1.1/DTD/svg11.dtd">
<svg xmlns="http://www.w3.org/2000/svg" version="1.1" width="291px" height="259px" style="shape-rendering:geometricPrecision; text-rendering:geometricPrecision; image-rendering:optimizeQuality; fill-rule:evenodd; clip-rule:evenodd" xmlns:xlink="http://www.w3.org/1999/xlink">
<g><path style="opacity:1" fill="#fefefe" d="M -0.5,-0.5 C 96.5,-0.5 193.5,-0.5 290.5,-0.5C 290.5,3.5 290.5,7.5 290.5,11.5C 289.833,11.1667 289.167,10.8333 288.5,10.5C 287.174,6.33005 284.508,3.16339 280.5,1C 212.665,0.1679 144.999,0.334566 77.5,1.5C 72.4239,2.91183 69.4239,6.24516 68.5,11.5C 67.71,12.6085 67.21,13.9419 67,15.5C 66.5001,28.8292 66.3334,42.1625 66.5,55.5C 47.8304,55.3334 29.1637,55.5001 10.5,56C 6.72506,57.4421 3.89172,59.9421 2,63.5C 1.50008,79.1631 1.33341,94.8298 1.5,110.5C 1.5,123.5 1.5,136.5 1.5,149.5C 1.5,161.5 1.5,173.5 1.5,185.5C -0.0477428,194.773 3.61892,200.439 12.5,202.5C 30.6591,203.497 48.9924,203.83 67.5,203.5C 67.3334,219.17 67.5001,234.837 68,250.5C 68.84,253.202 69.6733,255.868 70.5,258.5C 46.8333,258.5 23.1667,258.5 -0.5,258.5C -0.5,172.167 -0.5,85.8333 -0.5,-0.5 Z"/></g>
<g><path style="opacity:1" fill="#00a65f" d="M 77.5,1.5 C 111.167,1.5 144.833,1.5 178.5,1.5C 178.5,23.8333 178.5,46.1667 178.5,68.5C 171.5,68.5 164.5,68.5 157.5,68.5C 154.833,68.5 152.167,68.5 149.5,68.5C 149.167,68.5 148.833,68.5 148.5,68.5C 147.596,67.791 147.263,66.791 147.5,65.5C 146.833,60.1667 143.833,57.1667 138.5,56.5C 115.339,55.5025 92.006,55.1691 68.5,55.5C 68.5,40.8333 68.5,26.1667 68.5,11.5C 69.4239,6.24516 72.4239,2.91183 77.5,1.5 Z"/></g>
<g><path style="opacity:1" fill="#12c87b" d="M 77.5,1.5 C 144.999,0.334566 212.665,0.1679 280.5,1C 284.508,3.16339 287.174,6.33005 288.5,10.5C 288.5,29.5 288.5,48.5 288.5,67.5C 252.004,68.4985 215.337,68.8318 178.5,68.5C 178.5,46.1667 178.5,23.8333 178.5,1.5C 144.833,1.5 111.167,1.5 77.5,1.5 Z"/></g>
<g><path style="opacity:1" fill="#d9e0dc" d="M 288.5,10.5 C 289.167,10.8333 289.833,11.1667 290.5,11.5C 290.5,93.8333 290.5,176.167 290.5,258.5C 286.167,258.5 281.833,258.5 277.5,258.5C 277.5,258.167 277.5,257.833 277.5,257.5C 282.769,257.119 286.269,254.453 288,249.5C 288.5,229.836 288.667,210.169 288.5,190.5C 289.497,170.007 289.831,149.34 289.5,128.5C 289.83,107.993 289.497,87.6598 288.5,67.5C 288.5,48.5 288.5,29.5 288.5,10.5 Z"/></g>
<g><path style="opacity:1" fill="#e1e1e1" d="M 68.5,11.5 C 68.5,26.1667 68.5,40.8333 68.5,55.5C 67.8333,55.5 67.1667,55.5 66.5,55.5C 66.3334,42.1625 66.5001,28.8292 67,15.5C 67.21,13.9419 67.71,12.6085 68.5,11.5 Z"/></g>
<g><path style="opacity:1" fill="#028947" d="M 66.5,55.5 C 67.1667,55.5 67.8333,55.5 68.5,55.5C 92.006,55.1691 115.339,55.5025 138.5,56.5C 123.83,56.3334 109.163,56.5001 94.5,57C 63.4726,74.8451 32.4726,92.6784 1.5,110.5C 1.33341,94.8298 1.50008,79.1631 2,63.5C 3.89172,59.9421 6.72506,57.4421 10.5,56C 29.1637,55.5001 47.8304,55.3334 66.5,55.5 Z"/></g>
<g><path style="opacity:1" fill="#028442" d="M 138.5,56.5 C 143.833,57.1667 146.833,60.1667 147.5,65.5C 134.527,72.9883 121.527,80.4883 108.5,88C 109.056,88.3826 109.389,88.8826 109.5,89.5C 103.463,89.1707 97.4632,89.5041 91.5,90.5C 86.3333,100.167 81.1667,109.833 76,119.5C 71.1667,109.833 66.3333,100.167 61.5,90.5C 54.8582,89.3358 48.1915,89.1691 41.5,90C 46.9829,99.1397 52.3162,108.306 57.5,117.5C 38.8333,128.167 20.1667,138.833 1.5,149.5C 1.5,136.5 1.5,123.5 1.5,110.5C 32.4726,92.6784 63.4726,74.8451 94.5,57C 109.163,56.5001 123.83,56.3334 138.5,56.5 Z"/></g>
<g><path style="opacity:1" fill="#017f3a" d="M 147.5,65.5 C 147.263,66.791 147.596,67.791 148.5,68.5C 148.5,76.1667 148.5,83.8333 148.5,91.5C 147.834,95.0208 147.167,98.6875 146.5,102.5C 127.441,113.022 108.774,124.022 90.5,135.5C 87.6688,133.168 86.5022,130.168 87,126.5C 95.0247,114.444 102.525,102.111 109.5,89.5C 109.389,88.8826 109.056,88.3826 108.5,88C 121.527,80.4883 134.527,72.9883 147.5,65.5 Z"/></g>
<g><path style="opacity:1" fill="#007e39" d="M 157.5,68.5 C 164.5,68.5 171.5,68.5 178.5,68.5C 178.5,88.5 178.5,108.5 178.5,128.5C 172.833,128.5 167.167,128.5 161.5,128.5C 161.667,113.163 161.5,97.8297 161,82.5C 160.34,77.6899 159.173,73.0232 157.5,68.5 Z"/></g>
<g><path style="opacity:1" fill="#00a760" d="M 288.5,67.5 C 289.497,87.6598 289.83,107.993 289.5,128.5C 252.833,128.5 216.167,128.5 179.5,128.5C 179.167,128.5 178.833,128.5 178.5,128.5C 178.5,108.5 178.5,88.5 178.5,68.5C 215.337,68.8318 252.004,68.4985 288.5,67.5 Z"/></g>
<g><path style="opacity:1" fill="#00642e" d="M 148.5,68.5 C 148.833,68.5 149.167,68.5 149.5,68.5C 151.872,88.8054 153.205,109.139 153.5,129.5C 152.167,129.5 150.833,129.5 149.5,129.5C 149.167,129.5 148.833,129.5 148.5,129.5C 148.5,116.833 148.5,104.167 148.5,91.5C 148.5,83.8333 148.5,76.1667 148.5,68.5 Z"/></g>
<g><path style="opacity:1" fill="#fafcfb" d="M 109.5,89.5 C 102.525,102.111 95.0247,114.444 87,126.5C 86.5022,130.168 87.6688,133.168 90.5,135.5C 94.9188,143.341 99.5854,151.008 104.5,158.5C 105.913,161.661 107.58,164.661 109.5,167.5C 103.69,168.49 97.69,168.823 91.5,168.5C 91.1667,167.833 90.8333,167.167 90.5,166.5C 85.5992,157.033 80.4326,147.7 75,138.5C 69.2461,148.339 63.7461,158.339 58.5,168.5C 52.1667,169.833 45.8333,169.833 39.5,168.5C 40.1799,167.14 40.8466,165.807 41.5,164.5C 49.137,153.343 56.637,142.01 64,130.5C 64.6667,129.5 64.6667,128.5 64,127.5C 61.9703,123.991 59.8036,120.658 57.5,117.5C 52.3162,108.306 46.9829,99.1397 41.5,90C 48.1915,89.1691 54.8582,89.3358 61.5,90.5C 66.3333,100.167 71.1667,109.833 76,119.5C 81.1667,109.833 86.3333,100.167 91.5,90.5C 97.4632,89.5041 103.463,89.1707 109.5,89.5 Z"/></g>
<g><path style="opacity:1" fill="#007936" d="M 148.5,91.5 C 148.5,104.167 148.5,116.833 148.5,129.5C 147.596,130.209 147.263,131.209 147.5,132.5C 132.569,140.453 118.235,149.12 104.5,158.5C 99.5854,151.008 94.9188,143.341 90.5,135.5C 108.774,124.022 127.441,113.022 146.5,102.5C 147.167,98.6875 147.834,95.0208 148.5,91.5 Z"/></g>
<g><path style="opacity:1" fill="#017f3b" d="M 57.5,117.5 C 59.8036,120.658 61.9703,123.991 64,127.5C 64.6667,128.5 64.6667,129.5 64,130.5C 56.637,142.01 49.137,153.343 41.5,164.5C 41.1034,163.475 40.4368,163.308 39.5,164C 26.9409,171.444 14.2743,178.61 1.5,185.5C 1.5,173.5 1.5,161.5 1.5,149.5C 20.1667,138.833 38.8333,128.167 57.5,117.5 Z"/></g>
<g><path style="opacity:1" fill="#007e39" d="M 179.5,128.5 C 216.167,128.5 252.833,128.5 289.5,128.5C 289.831,149.34 289.497,170.007 288.5,190.5C 252.337,189.502 216.004,189.168 179.5,189.5C 179.5,169.167 179.5,148.833 179.5,128.5 Z"/></g>
<g><path style="opacity:1" fill="#094c29" d="M 149.5,129.5 C 150.833,129.5 152.167,129.5 153.5,129.5C 153.667,152.836 153.5,176.169 153,199.5C 151.167,210.667 144.667,217.167 133.5,219C 111.836,219.5 90.1692,219.667 68.5,219.5C 68.5,217.167 68.5,214.833 68.5,212.5C 89.5026,212.667 110.503,212.5 131.5,212C 140.333,209.167 146.167,203.333 149,194.5C 149.5,172.836 149.667,151.169 149.5,129.5 Z"/></g>
<g><path style="opacity:1" fill="#0a542e" d="M 153.5,129.5 C 155.167,129.5 156.833,129.5 158.5,129.5C 158.892,153.527 158.392,177.527 157,201.5C 154.5,213.333 147.333,220.5 135.5,223C 113.194,224.383 90.8608,224.883 68.5,224.5C 68.5,222.833 68.5,221.167 68.5,219.5C 90.1692,219.667 111.836,219.5 133.5,219C 144.667,217.167 151.167,210.667 153,199.5C 153.5,176.169 153.667,152.836 153.5,129.5 Z"/></g>
<g><path style="opacity:1" fill="#0b5d32" d="M 158.5,129.5 C 165.167,129.5 171.833,129.5 178.5,129.5C 178.5,149.833 178.5,170.167 178.5,190.5C 215.167,190.5 251.833,190.5 288.5,190.5C 288.667,210.169 288.5,229.836 288,249.5C 286.269,254.453 282.769,257.119 277.5,257.5C 210.499,257.667 143.499,257.5 76.5,257C 75.3066,255.905 73.9733,255.072 72.5,254.5C 71.0927,252.692 69.926,250.692 69,248.5C 68.5003,240.507 68.3336,232.507 68.5,224.5C 90.8608,224.883 113.194,224.383 135.5,223C 147.333,220.5 154.5,213.333 157,201.5C 158.392,177.527 158.892,153.527 158.5,129.5 Z"/></g>
<g><path style="opacity:1" fill="#027936" d="M 90.5,166.5 C 68.5545,177.471 47.2212,189.471 26.5,202.5C 21.8333,202.5 17.1667,202.5 12.5,202.5C 3.61892,200.439 -0.0477428,194.773 1.5,185.5C 14.2743,178.61 26.9409,171.444 39.5,164C 40.4368,163.308 41.1034,163.475 41.5,164.5C 40.8466,165.807 40.1799,167.14 39.5,168.5C 45.8333,169.833 52.1667,169.833 58.5,168.5C 63.7461,158.339 69.2461,148.339 75,138.5C 80.4326,147.7 85.5992,157.033 90.5,166.5 Z"/></g>
<g><path style="opacity:1" fill="#007331" d="M 147.5,132.5 C 147.832,142.522 147.499,152.522 146.5,162.5C 123.273,175.608 100.273,188.941 77.5,202.5C 74.5,202.5 71.5,202.5 68.5,202.5C 54.5,202.5 40.5,202.5 26.5,202.5C 47.2212,189.471 68.5545,177.471 90.5,166.5C 90.8333,167.167 91.1667,167.833 91.5,168.5C 97.6783,169.817 104.012,169.817 110.5,168.5C 110.376,167.893 110.043,167.56 109.5,167.5C 107.58,164.661 105.913,161.661 104.5,158.5C 118.235,149.12 132.569,140.453 147.5,132.5 Z"/></g>
<g><path style="opacity:1" fill="#006d2d" d="M 148.5,129.5 C 148.667,150.503 148.5,171.503 148,192.5C 147.178,197.148 144.678,200.481 140.5,202.5C 119.5,202.5 98.5,202.5 77.5,202.5C 100.273,188.941 123.273,175.608 146.5,162.5C 147.499,152.522 147.832,142.522 147.5,132.5C 147.263,131.209 147.596,130.209 148.5,129.5 Z"/></g>
<g><path style="opacity:1" fill="#87ba9a" d="M 109.5,167.5 C 110.043,167.56 110.376,167.893 110.5,168.5C 104.012,169.817 97.6783,169.817 91.5,168.5C 97.69,168.823 103.69,168.49 109.5,167.5 Z"/></g>
<g><path style="opacity:1" fill="#007436" d="M 149.5,68.5 C 152.167,68.5 154.833,68.5 157.5,68.5C 159.173,73.0232 160.34,77.6899 161,82.5C 161.5,97.8297 161.667,113.163 161.5,128.5C 167.167,128.5 172.833,128.5 178.5,128.5C 178.833,128.5 179.167,128.5 179.5,128.5C 179.5,148.833 179.5,169.167 179.5,189.5C 216.004,189.168 252.337,189.502 288.5,190.5C 251.833,190.5 215.167,190.5 178.5,190.5C 178.5,170.167 178.5,149.833 178.5,129.5C 171.833,129.5 165.167,129.5 158.5,129.5C 156.833,129.5 155.167,129.5 153.5,129.5C 153.205,109.139 151.872,88.8054 149.5,68.5 Z"/></g>
<g><path style="opacity:1" fill="#094123" d="M 148.5,129.5 C 148.833,129.5 149.167,129.5 149.5,129.5C 149.667,151.169 149.5,172.836 149,194.5C 146.167,203.333 140.333,209.167 131.5,212C 110.503,212.5 89.5026,212.667 68.5,212.5C 68.5,211.5 68.5,210.5 68.5,209.5C 89.1244,209.455 109.624,209.455 130,209.5C 133.962,207.775 137.462,205.442 140.5,202.5C 144.678,200.481 147.178,197.148 148,192.5C 148.5,171.503 148.667,150.503 148.5,129.5 Z"/></g>
<g><path style="opacity:1" fill="#cad5cf" d="M 12.5,202.5 C 17.1667,202.5 21.8333,202.5 26.5,202.5C 40.5,202.5 54.5,202.5 68.5,202.5C 68.5,204.833 68.5,207.167 68.5,209.5C 68.5,210.5 68.5,211.5 68.5,212.5C 68.5,214.833 68.5,217.167 68.5,219.5C 68.5,221.167 68.5,222.833 68.5,224.5C 68.3336,232.507 68.5003,240.507 69,248.5C 69.926,250.692 71.0927,252.692 72.5,254.5C 72.4326,255.959 72.7659,257.292 73.5,258.5C 72.5,258.5 71.5,258.5 70.5,258.5C 69.6733,255.868 68.84,253.202 68,250.5C 67.5001,234.837 67.3334,219.17 67.5,203.5C 48.9924,203.83 30.6591,203.497 12.5,202.5 Z"/></g>
<g><path style="opacity:1" fill="#083b20" d="M 68.5,202.5 C 71.5,202.5 74.5,202.5 77.5,202.5C 98.5,202.5 119.5,202.5 140.5,202.5C 137.462,205.442 133.962,207.775 130,209.5C 109.624,209.455 89.1244,209.455 68.5,209.5C 68.5,207.167 68.5,204.833 68.5,202.5 Z"/></g>
<g><path style="opacity:1" fill="#a3b4aa" d="M 72.5,254.5 C 73.9733,255.072 75.3066,255.905 76.5,257C 143.499,257.5 210.499,257.667 277.5,257.5C 277.5,257.833 277.5,258.167 277.5,258.5C 209.5,258.5 141.5,258.5 73.5,258.5C 72.7659,257.292 72.4326,255.959 72.5,254.5 Z"/></g>
</svg>
