<svg width="102" height="102" xmlns="http://www.w3.org/2000/svg" xmlns:xlink="http://www.w3.org/1999/xlink" xml:space="preserve" overflow="hidden"><defs><clipPath id="clip0"><rect x="98" y="98" width="102" height="102"/></clipPath><clipPath id="clip1"><rect x="99" y="99" width="100" height="100"/></clipPath><clipPath id="clip2"><rect x="99" y="99" width="100" height="100"/></clipPath></defs><g clip-path="url(#clip0)" transform="translate(-98 -98)"><g clip-path="url(#clip1)"><g clip-path="url(#clip2)"><path d="M103.702 49.4012C103.497 49.4012 103.293 49.4012 103.089 49.4012L84.921 16.331C85.3293 15.7186 85.3293 15.1061 85.3293 14.2896 85.3293 11.8399 83.2879 10.0027 81.0424 10.0027 79.8176 10.0027 78.5928 10.6151 77.9804 11.4317L42.0522 4.08274C41.8481 1.83723 40.0109 0.204137 37.7654 0.204137 35.3157 0.204137 33.4785 2.24551 33.4785 4.49101 33.4785 5.30756 33.6826 5.91997 33.8867 6.53239L5.91997 46.7474C5.5117 46.7474 5.10343 46.5432 4.69515 46.5432 2.24551 46.5432 0.408274 48.5846 0.408274 50.8301 0.408274 53.2798 2.44964 55.117 4.69515 55.117L4.89929 55.117 20.0054 92.4741C19.8013 93.0865 19.5972 93.6989 19.5972 94.3113 19.5972 96.761 21.6385 98.5982 23.884 98.5982 25.1089 98.5982 26.3337 97.9858 26.9461 97.1692L72.2645 101.66C72.6728 103.497 74.51 104.926 76.5514 104.926 79.001 104.926 80.8383 102.885 80.8383 100.64 80.8383 99.6189 80.43 98.5982 79.8176 97.7816L102.681 57.9749C102.885 57.9749 103.089 57.9749 103.497 57.9749 105.947 57.9749 107.784 55.9335 107.784 53.688 107.988 51.4425 106.151 49.4012 103.702 49.4012ZM77.5721 16.9434C78.1845 17.5558 78.7969 18.1682 79.6134 18.3723L72.6728 70.2231C72.2645 70.2231 71.8562 70.4273 71.448 70.6314L33.6826 37.9695C33.6826 37.5612 33.8867 37.1529 33.8867 36.7447 33.8867 36.5405 33.8867 36.1323 33.8867 35.9281L77.5721 16.9434ZM99.4147 55.117 76.1431 71.0397C75.939 70.8356 75.7348 70.8356 75.5307 70.6314L82.6755 18.3723 100.435 51.0343C99.823 51.8508 99.4147 52.8715 99.4147 53.8922 99.2106 54.3005 99.4147 54.7087 99.4147 55.117ZM28.9875 32.4578C26.9461 32.8661 25.313 34.4992 25.313 36.7447L25.313 36.9488 9.79858 46.135 33.8867 11.6358 28.9875 32.4578ZM30.6206 41.0315C31.233 40.8274 31.8454 40.6233 32.2537 40.4191L69.6107 72.8769C69.4066 73.2852 69.4066 73.8976 69.4066 74.51L69.4066 74.7141 27.5585 91.8617C26.9461 91.0451 25.9254 90.2286 24.9047 90.0244L30.6206 41.0315ZM70.4273 77.3679C71.0397 77.9804 71.8562 78.3886 72.6728 78.5928L74.7141 96.761C73.8976 97.1692 73.0811 97.9858 72.6728 98.8023L28.7833 94.5154 70.4273 77.3679ZM75.7348 78.3886C77.1638 77.7762 78.1845 76.1431 78.1845 74.51 78.1845 74.1017 78.1845 73.6935 77.9804 73.4893L99.2106 58.9956 77.7762 96.1485 75.7348 78.3886ZM76.7555 14.0855 32.4578 33.4785C32.2537 33.2743 32.0495 33.2743 32.0495 33.0702L37.7654 8.98203 37.9695 8.98203C39.6026 8.98203 40.8274 8.16548 41.644 6.94066L76.7555 14.0855ZM9.18617 50.8301C9.18617 50.626 9.18617 50.2177 9.18617 50.0136L26.742 39.6026C27.1502 40.0109 27.5585 40.215 27.9668 40.4191L22.2509 89.412 7.96134 54.0963C8.57376 53.2798 9.18617 52.2591 9.18617 50.8301Z" fill="#FFFFFF" fill-rule="nonzero" fill-opacity="1" transform="matrix(1 0 0 1.0032 95.219 94.7265)"/><path d="M157.186 69.8149 157.186 38.5819C157.186 23.4758 168.617 17.7599 183.519 17.7599 198.217 17.7599 209.853 23.4758 209.853 38.5819L209.853 69.8149C209.853 84.921 198.217 90.6368 183.519 90.6368 168.617 90.6368 157.186 84.921 157.186 69.8149ZM203.32 38.5819C203.32 27.5585 195.972 22.6592 183.519 22.6592 171.067 22.6592 163.718 27.7626 163.718 38.5819L163.718 69.8149C163.718 80.8383 171.067 85.7376 183.519 85.7376 195.972 85.7376 203.32 80.6341 203.32 69.8149L203.32 38.5819Z" fill="#FFFFFF" fill-rule="nonzero" fill-opacity="1" transform="matrix(1 0 0 1.0032 95.219 94.7265)"/><path d="M274.564 86.35 236.187 29.5999 236.187 87.7789C236.187 89.2079 234.553 90.0244 232.92 90.0244 231.287 90.0244 229.654 89.412 229.654 87.7789L229.654 20.0054C229.654 18.3723 231.287 17.9641 232.92 17.9641 235.37 17.9641 237.003 20.4137 238.228 22.0468L275.993 78.3886 275.993 20.0054C275.993 18.5765 277.626 17.9641 279.259 17.9641 280.893 17.9641 282.526 18.5765 282.526 20.0054L282.526 87.7789C282.526 89.2079 280.893 90.0244 279.259 90.0244 277.218 90.0244 275.789 87.9831 274.564 86.35Z" fill="#FFFFFF" fill-rule="nonzero" fill-opacity="1" transform="matrix(1 0 0 1.0032 95.219 94.7265)"/><path d="M348.054 86.35 309.676 29.5999 309.676 87.7789C309.676 89.2079 308.043 90.0244 306.41 90.0244 304.777 90.0244 303.143 89.412 303.143 87.7789L303.143 20.0054C303.143 18.3723 304.777 17.9641 306.41 17.9641 308.859 17.9641 310.492 20.4137 311.717 22.0468L349.483 78.3886 349.483 20.0054C349.483 18.5765 351.116 17.9641 352.749 17.9641 354.382 17.9641 356.015 18.5765 356.015 20.0054L356.015 87.7789C356.015 89.2079 354.382 90.0244 352.749 90.0244 350.912 90.0244 349.278 87.9831 348.054 86.35Z" fill="#FFFFFF" fill-rule="nonzero" fill-opacity="1" transform="matrix(1 0 0 1.0032 95.219 94.7265)"/><path d="M396.638 58.5873 377.245 86.7582C376.429 88.1872 375.204 90.0244 373.367 90.0244 371.734 90.0244 369.692 89.0037 369.692 87.5748 369.692 87.1665 369.896 86.7582 370.305 86.35L392.76 53.8922 370.713 21.6385C370.1 21.0261 369.896 20.4137 369.896 19.8013 369.896 18.5765 371.529 17.7599 373.571 17.7599 375.408 17.7599 376.633 19.5972 377.654 21.2303L396.638 49.197 415.623 21.2303C416.644 19.8013 417.868 17.7599 419.706 17.7599 421.747 17.7599 423.38 18.5765 423.38 19.8013 423.38 20.4137 423.176 21.0261 422.564 21.6385L400.313 53.8922 422.972 86.35C423.176 86.7582 423.584 87.1665 423.584 87.5748 423.584 89.0037 421.747 90.0244 419.91 90.0244 417.868 90.0244 416.848 87.9831 416.031 86.7582L396.638 58.5873Z" fill="#FFFFFF" fill-rule="nonzero" fill-opacity="1" transform="matrix(1 0 0 1.0032 95.219 94.7265)"/><path d="M82.6755 18.3723 100.435 51.0343C99.823 51.8508 99.4147 52.8715 99.4147 53.8922 99.4147 54.3005 99.4147 54.7087 99.6189 55.117L76.3473 71.0397C76.1431 70.8356 75.939 70.8356 75.7348 70.6314L82.6755 18.3723" fill="#545554" fill-rule="nonzero" fill-opacity="1" transform="matrix(1 0 0 1.0032 95.219 94.7265)"/><path d="M75.7348 78.3886C77.1638 77.7762 78.1845 76.1431 78.1845 74.51 78.1845 74.1017 78.1845 73.6935 77.9804 73.4893L99.2106 58.9956 77.7762 96.1485 75.7348 78.3886Z" fill="#3E3E3D" fill-rule="nonzero" fill-opacity="1" transform="matrix(1 0 0 1.0032 95.219 94.7265)"/><path d="M70.4273 77.3679C71.0397 77.9804 71.8562 78.3886 72.6728 78.5928L74.7141 96.761C73.8976 97.1692 73.0811 97.9858 72.6728 98.8023L28.7833 94.5154 70.4273 77.3679Z" fill="#4D4C4D" fill-rule="nonzero" fill-opacity="1" transform="matrix(1 0 0 1.0032 95.219 94.7265)"/><path d="M30.6206 41.0315C31.233 40.8274 31.8454 40.6233 32.2537 40.4191L69.6107 72.8769C69.4066 73.2852 69.4066 73.8976 69.4066 74.51L69.4066 74.7141 27.5585 91.8617C26.9461 91.0451 25.9254 90.2286 24.9047 90.0244L30.6206 41.0315Z" fill="#5D5D5D" fill-rule="nonzero" fill-opacity="1" transform="matrix(1 0 0 1.0032 95.219 94.7265)"/><path d="M9.18617 50.8301C9.18617 50.626 9.18617 50.2177 9.18617 50.0136L26.742 39.6026C27.1502 40.0109 27.5585 40.215 27.9668 40.4191L22.2509 89.412 7.96134 54.0963C8.57376 53.2798 9.18617 52.2591 9.18617 50.8301Z" fill="#4D4C4D" fill-rule="nonzero" fill-opacity="1" transform="matrix(1 0 0 1.0032 95.219 94.7265)"/><path d="M28.9875 32.4578C26.9461 32.8661 25.313 34.4992 25.313 36.7447L25.313 36.9488 9.79858 46.135 33.8867 11.6358 28.9875 32.4578Z" fill="#3E3E3D" fill-rule="nonzero" fill-opacity="1" transform="matrix(1 0 0 1.0032 95.219 94.7265)"/><path d="M76.7555 14.0855 32.4578 33.4785C32.2537 33.2743 32.0495 33.2743 32.0495 33.0702L37.7654 8.98203 37.9695 8.98203C39.6026 8.98203 40.8274 8.16548 41.644 6.94066L76.7555 14.0855Z" fill="#545554" fill-rule="nonzero" fill-opacity="1" transform="matrix(1 0 0 1.0032 95.219 94.7265)"/><path d="M77.5721 16.9434C78.1845 17.5558 78.7969 18.1682 79.6134 18.3723L72.6728 70.2231C72.2645 70.2231 71.8562 70.4273 71.448 70.6314L33.6826 37.9695C33.6826 37.5612 33.8867 37.1529 33.8867 36.7447 33.8867 36.5405 33.8867 36.1323 33.8867 35.9281L77.5721 16.9434Z" fill="#717272" fill-rule="nonzero" fill-opacity="1" transform="matrix(1 0 0 1.0032 95.219 94.7265)"/></g></g></g></svg>