<svg width="376" height="397" xmlns="http://www.w3.org/2000/svg" xmlns:xlink="http://www.w3.org/1999/xlink" xml:space="preserve" overflow="hidden"><defs><clipPath id="clip0"><rect x="1197" y="797" width="376" height="397"/></clipPath><clipPath id="clip1"><rect x="1198" y="798" width="375" height="396"/></clipPath><clipPath id="clip2"><rect x="1198" y="798" width="375" height="396"/></clipPath></defs><g clip-path="url(#clip0)" transform="translate(-1197 -797)"><g clip-path="url(#clip1)"><g clip-path="url(#clip2)"><path d="M218.57 91.0707C223.579 91.0707 227.677 95.1689 227.677 100.178 227.677 105.187 223.579 109.285 218.57 109.285 213.561 109.285 209.463 105.187 209.463 100.178 209.463 95.1689 213.561 91.0707 218.57 91.0707ZM273.212 364.283C273.212 359.274 269.114 355.176 264.105 355.176L232.23 355.176 232.23 123.856C236.328 121.579 239.971 117.937 242.248 113.838L329.676 113.838 304.176 245.891 322.846 245.891 342.881 142.07 368.381 245.891 387.05 245.891 353.81 113.838 359.729 113.838C367.47 113.838 373.39 107.919 373.39 100.178 373.39 92.4368 367.47 86.5172 359.729 86.5172L242.248 86.5172C239.971 82.419 236.328 78.7762 232.23 76.4994L232.23 50.0889C232.23 42.3479 226.311 36.4283 218.57 36.4283 210.829 36.4283 204.909 42.3479 204.909 50.0889L204.909 76.4994C200.811 78.7762 197.168 82.419 194.891 86.5172L77.4101 86.5172C69.6691 86.5172 63.7495 92.4368 63.7495 100.178 63.7495 106.553 68.303 112.472 74.678 113.383L48.7228 245.891 67.3923 245.891 87.4279 142.07 113.383 245.891 132.053 245.891 98.8117 113.838 194.436 113.838C196.713 117.937 200.356 121.579 204.454 123.856L204.454 355.176 172.579 355.176C167.57 355.176 163.472 359.274 163.472 364.283L163.472 373.39 109.285 373.39 109.285 400.711 327.855 400.711 327.855 373.39 273.212 373.39 273.212 364.283Z" stroke="#4472C4" stroke-width="4.55353" stroke-linecap="butt" stroke-linejoin="miter" stroke-miterlimit="4" stroke-opacity="1" fill="#0E78D4" fill-rule="nonzero" fill-opacity="1" transform="matrix(1 0 0 1.00154 1168.52 777.13)"/><path d="M145.713 259.551 36.4283 259.551C36.4283 274.578 61.0174 286.873 91.0707 286.873 121.124 286.873 145.713 274.578 145.713 259.551Z" stroke="#4472C4" stroke-width="4.55353" stroke-linecap="butt" stroke-linejoin="miter" stroke-miterlimit="4" stroke-opacity="1" fill="#0E78D4" fill-rule="nonzero" fill-opacity="1" transform="matrix(1 0 0 1.00154 1168.52 777.13)"/><path d="M291.426 259.551C291.426 274.578 316.015 286.873 346.069 286.873 376.122 286.873 400.711 274.578 400.711 259.551L291.426 259.551Z" stroke="#4472C4" stroke-width="4.55353" stroke-linecap="butt" stroke-linejoin="miter" stroke-miterlimit="4" stroke-opacity="1" fill="#0E78D4" fill-rule="nonzero" fill-opacity="1" transform="matrix(1 0 0 1.00154 1168.52 777.13)"/></g></g></g></svg>