<svg width="428" height="293" xmlns="http://www.w3.org/2000/svg" xmlns:xlink="http://www.w3.org/1999/xlink" xml:space="preserve" overflow="hidden"><defs><clipPath id="clip0"><rect x="96" y="857" width="428" height="293"/></clipPath><clipPath id="clip1"><rect x="97" y="858" width="427" height="292"/></clipPath><clipPath id="clip2"><rect x="97" y="858" width="427" height="292"/></clipPath></defs><g clip-path="url(#clip0)" transform="translate(-96 -857)"><g clip-path="url(#clip1)"><g clip-path="url(#clip2)"><path d="M319.015 321.592C359.214 282.939 361.276 219.033 323.138 177.803 363.853 198.934 397.352 231.402 416.936 253.048 396.321 273.147 361.276 303.039 319.015 321.592ZM116.474 215.425C133.481 200.995 151.519 188.626 171.103 178.319 133.481 219.548 135.543 282.939 175.742 321.592 133.481 303.039 97.9207 273.147 77.8212 253.048 89.6747 239.648 102.559 227.279 116.474 215.425ZM247.378 329.838C202.026 329.838 164.919 292.731 164.919 247.378 164.919 202.026 202.026 164.919 247.378 164.919 292.731 164.919 329.838 202.026 329.838 247.378 329.838 292.731 292.731 329.838 247.378 329.838ZM447.858 238.617C417.967 203.572 339.63 123.689 247.378 123.689 155.127 123.689 76.7904 203.572 46.8988 238.617 39.1683 247.894 39.6836 260.778 47.9296 269.539 78.3365 301.493 156.158 371.068 247.378 371.068 338.599 371.068 416.42 301.493 447.343 269.539 455.073 261.294 455.589 247.894 447.858 238.617Z" stroke="#4472C4" stroke-width="5.15372" stroke-linecap="butt" stroke-linejoin="miter" stroke-miterlimit="4" stroke-opacity="1" fill="#0E78D4" fill-rule="nonzero" fill-opacity="1" transform="matrix(1 0 0 1.00125 62.461 758.013)"/><path d="M298.916 247.378C298.916 275.841 275.841 298.916 247.378 298.916 218.916 298.916 195.841 275.841 195.841 247.378 195.841 218.916 218.916 195.841 247.378 195.841 275.841 195.841 298.916 218.916 298.916 247.378Z" stroke="#4472C4" stroke-width="5.15372" stroke-linecap="butt" stroke-linejoin="miter" stroke-miterlimit="4" stroke-opacity="1" fill="#0E78D4" fill-rule="nonzero" fill-opacity="1" transform="matrix(1 0 0 1.00125 62.461 758.013)"/></g></g></g></svg>