<svg width="272" height="330" xmlns="http://www.w3.org/2000/svg" xmlns:xlink="http://www.w3.org/1999/xlink" xml:space="preserve" overflow="hidden"><defs><clipPath id="clip0"><rect x="908" y="90" width="272" height="330"/></clipPath><clipPath id="clip1"><rect x="909" y="91" width="270" height="329"/></clipPath><clipPath id="clip2"><rect x="909" y="91" width="270" height="329"/></clipPath></defs><g clip-path="url(#clip0)" transform="translate(-908 -90)"><g clip-path="url(#clip1)"><g clip-path="url(#clip2)"><path d="M285.267 82.9539C246.746 79.8854 210.827 62.3089 184.768 33.7757 179.855 28.0823 171.258 27.449 165.564 32.3613 165.059 32.7975 164.586 33.2702 164.15 33.7757 138.09 62.3089 102.171 79.8854 63.6509 82.9539 56.493 83.6247 51.038 89.66 51.0921 96.8491L51.0921 131.907C51.0921 208.124 99.5657 277.843 166.87 320.986 171.493 323.956 177.425 323.956 182.047 320.986 249.352 277.832 297.826 208.124 297.826 131.907L297.826 96.8491C297.88 89.66 292.425 83.6247 285.267 82.9539ZM274.219 131.907C274.219 192.558 238.086 253.743 177.562 295.614L174.461 297.76 171.363 295.614C110.835 253.739 74.6952 192.54 74.6952 131.907L74.6952 105.573 79.2858 104.846C113.487 99.4382 145.32 84.0202 170.767 60.5384L174.457 57.1391 178.151 60.5384C203.597 84.0202 235.428 99.4382 269.628 104.846L274.219 105.573Z" stroke="#4472C4" stroke-width="3.6318" stroke-linecap="butt" stroke-linejoin="miter" stroke-miterlimit="4" stroke-opacity="1" fill="#0E78D4" fill-rule="nonzero" fill-opacity="1" transform="matrix(1 0 0 1.00372 868.009 79.2103)"/><path d="M174.457 71.866C149.241 93.9194 118.539 108.756 85.5906 114.808L85.5906 131.907C85.5906 187.935 118.738 244.721 174.461 284.479 230.176 244.729 263.323 187.938 263.323 131.907L263.323 114.808C230.375 108.756 199.673 93.9194 174.457 71.866ZM165.131 213.67 128.406 176.941 140.885 164.462 165.131 188.708 214.784 139.054 227.263 151.537Z" stroke="#4472C4" stroke-width="3.6318" stroke-linecap="butt" stroke-linejoin="miter" stroke-miterlimit="4" stroke-opacity="1" fill="#0E78D4" fill-rule="nonzero" fill-opacity="1" transform="matrix(1 0 0 1.00372 868.009 79.2103)"/></g></g></g></svg>