<svg width="248" height="350" xmlns="http://www.w3.org/2000/svg" xmlns:xlink="http://www.w3.org/1999/xlink" xml:space="preserve" overflow="hidden"><defs><clipPath id="clip0"><rect x="842" y="816" width="248" height="350"/></clipPath><clipPath id="clip1"><rect x="843" y="817" width="247" height="349"/></clipPath><clipPath id="clip2"><rect x="843" y="817" width="247" height="349"/></clipPath></defs><g clip-path="url(#clip0)" transform="translate(-842 -816)"><g clip-path="url(#clip1)"><g clip-path="url(#clip2)"><path d="M210.829 291.788 210.829 314.135 193.963 314.135 193.963 291.788C184.265 288.414 177.096 279.138 177.096 267.753 177.096 253.838 188.481 242.454 202.396 242.454 216.311 242.454 227.695 253.838 227.695 267.753 227.695 278.716 220.527 287.993 210.829 291.788ZM139.147 137.039C139.147 102.041 167.398 73.7902 202.396 73.7902 237.394 73.7902 265.645 102.041 265.645 137.039L265.645 183.843 202.396 179.205 139.147 183.843 139.147 137.039ZM290.944 185.53 290.944 137.039C290.944 88.1266 251.308 48.4907 202.396 48.4907 153.484 48.4907 113.848 88.1266 113.848 137.039L113.848 185.53 84.3317 187.638 84.3317 347.868 202.396 356.301 320.46 347.868 320.46 187.638 290.944 185.53Z" stroke="#4472C4" stroke-width="4.21658" stroke-linecap="butt" stroke-linejoin="miter" stroke-miterlimit="4" stroke-opacity="1" fill="#0E78D4" fill-rule="nonzero" fill-opacity="1" transform="matrix(1 0 0 1.00001 765.333 791.838)"/></g></g></g></svg>