<svg width="518" height="350" xmlns="http://www.w3.org/2000/svg" xmlns:xlink="http://www.w3.org/1999/xlink" xml:space="preserve" overflow="hidden"><defs><clipPath id="clip0"><rect x="428" y="448" width="518" height="350"/></clipPath><clipPath id="clip1"><rect x="429" y="448" width="517" height="350"/></clipPath><clipPath id="clip2"><rect x="429" y="448" width="517" height="350"/></clipPath></defs><g clip-path="url(#clip0)" transform="translate(-428 -448)"><g clip-path="url(#clip1)"><g clip-path="url(#clip2)"><path d="M262.966 424.026C260.038 424.026 256.524 423.44 254.181 421.097 249.496 416.997 248.91 409.384 253.01 404.698L275.851 378.343C279.951 373.658 287.564 373.072 292.25 377.172 296.935 381.272 297.521 388.885 293.421 393.571L270.58 419.926C268.823 422.268 265.894 423.44 262.966 424.026Z" stroke="#4472C4" stroke-width="5.85671" stroke-linecap="butt" stroke-linejoin="miter" stroke-miterlimit="4" stroke-opacity="1" fill="#0E78D4" fill-rule="nonzero" fill-opacity="1" transform="matrix(1 0 0 1.00294 405.262 340.081)"/><path d="M227.24 410.555C223.14 411.141 219.626 409.969 216.112 407.041 210.256 401.77 209.67 392.399 214.941 386.543L241.882 355.502C247.153 349.645 256.524 349.06 262.38 354.331 268.237 359.602 268.823 368.972 263.552 374.829L236.611 405.87C234.268 408.798 230.754 410.555 227.24 410.555Z" stroke="#4472C4" stroke-width="5.85671" stroke-linecap="butt" stroke-linejoin="miter" stroke-miterlimit="4" stroke-opacity="1" fill="#0E78D4" fill-rule="nonzero" fill-opacity="1" transform="matrix(1 0 0 1.00294 405.262 340.081)"/><path d="M190.343 388.885C185.658 389.471 180.972 387.714 177.458 384.786 170.43 378.343 169.259 367.215 175.701 360.187L202.642 329.147C209.084 322.119 220.212 320.947 227.24 327.39 234.268 333.832 235.44 344.96 228.997 351.988L202.056 383.029C199.128 386.543 194.443 388.885 190.343 388.885Z" stroke="#4472C4" stroke-width="5.85671" stroke-linecap="butt" stroke-linejoin="miter" stroke-miterlimit="4" stroke-opacity="1" fill="#0E78D4" fill-rule="nonzero" fill-opacity="1" transform="matrix(1 0 0 1.00294 405.262 340.081)"/><path d="M147.589 367.215C142.904 367.801 138.218 366.044 134.704 363.116 127.676 356.673 126.505 345.546 132.947 338.518L163.988 303.377C170.43 296.349 181.558 295.178 188.586 301.62 195.614 308.063 196.785 319.19 190.343 326.219L159.302 361.359C155.788 364.873 151.689 366.63 147.589 367.215Z" stroke="#4472C4" stroke-width="5.85671" stroke-linecap="butt" stroke-linejoin="miter" stroke-miterlimit="4" stroke-opacity="1" fill="#0E78D4" fill-rule="nonzero" fill-opacity="1" transform="matrix(1 0 0 1.00294 405.262 340.081)"/><path d="M26.9408 238.368 72.0375 265.894C77.3085 269.408 84.9222 267.651 87.8506 261.795L142.318 171.601C145.832 166.33 144.075 158.717 138.218 155.788L93.7073 128.262 26.9408 238.368Z" stroke="#4472C4" stroke-width="5.85671" stroke-linecap="butt" stroke-linejoin="miter" stroke-miterlimit="4" stroke-opacity="1" fill="#0E78D4" fill-rule="nonzero" fill-opacity="1" transform="matrix(1 0 0 1.00294 405.262 340.081)"/><path d="M406.455 315.091 312.162 234.268 305.72 228.412 265.309 274.68C259.452 281.708 251.253 285.807 241.882 286.393 240.711 286.393 239.539 286.393 238.954 286.393 230.169 286.393 221.969 283.465 216.112 277.608 201.471 264.723 200.299 242.468 212.598 227.826L247.153 188C220.212 184.486 185.658 198.542 149.932 180.972L98.9783 265.309 138.804 311.577 154.031 294.007C159.302 287.564 167.502 284.05 176.287 284.05 183.315 284.05 190.343 286.393 195.614 291.078 202.056 296.349 204.985 303.963 205.57 312.162 208.499 310.991 212.013 310.405 215.527 310.405 222.555 310.405 229.583 312.748 234.854 317.433 241.296 323.29 244.81 330.904 244.81 339.103 247.153 338.518 250.081 337.932 252.424 337.932 258.866 337.932 264.723 340.275 269.994 344.374 275.265 349.06 278.194 355.502 278.779 362.53 280.536 361.944 282.879 361.359 285.222 361.359 291.078 361.359 296.349 363.116 300.449 367.215 305.134 371.315 308.063 377.172 308.648 383.029 309.234 389.471 306.891 395.328 302.792 400.013L282.879 422.854 291.078 429.297C295.178 431.639 299.863 433.396 305.134 432.811 318.019 431.639 327.39 420.511 326.219 407.627 326.219 407.627 326.219 407.041 326.219 407.041 327.976 407.627 330.318 407.627 332.075 407.627 344.96 406.455 354.331 395.328 353.159 382.443 353.159 382.443 353.159 381.857 353.159 381.857 354.916 382.443 357.259 382.443 359.016 382.443 371.901 381.272 381.272 370.144 380.1 357.259 380.1 356.088 379.515 354.916 379.515 353.745 383.029 355.502 387.128 356.673 391.814 356.088 404.698 354.916 414.069 343.789 412.898 330.904 413.483 324.462 410.555 319.19 406.455 315.091Z" stroke="#4472C4" stroke-width="5.85671" stroke-linecap="butt" stroke-linejoin="miter" stroke-miterlimit="4" stroke-opacity="1" fill="#0E78D4" fill-rule="nonzero" fill-opacity="1" transform="matrix(1 0 0 1.00294 405.262 340.081)"/><path d="M535.303 238.368 490.206 265.894C484.935 269.408 477.322 267.651 474.393 261.795L419.926 171.601C416.412 166.33 418.169 158.717 424.026 155.788L469.122 128.262 535.303 238.368Z" stroke="#4472C4" stroke-width="5.85671" stroke-linecap="butt" stroke-linejoin="miter" stroke-miterlimit="4" stroke-opacity="1" fill="#0E78D4" fill-rule="nonzero" fill-opacity="1" transform="matrix(1 0 0 1.00294 405.262 340.081)"/><path d="M412.898 183.315C364.287 200.885 329.147 183.901 289.907 176.287 289.321 176.287 286.979 175.701 286.979 175.701 279.951 175.115 272.337 177.458 267.066 183.315L220.798 236.025C212.013 245.982 213.184 260.623 223.14 268.823 228.412 272.922 234.268 275.265 240.711 274.68 246.567 274.094 252.424 271.751 256.524 266.48 256.524 266.48 304.549 211.427 304.549 211.427L414.069 305.72C416.997 308.648 418.169 309.82 420.511 313.334L462.68 264.723 412.898 183.315Z" stroke="#4472C4" stroke-width="5.85671" stroke-linecap="butt" stroke-linejoin="miter" stroke-miterlimit="4" stroke-opacity="1" fill="#0E78D4" fill-rule="nonzero" fill-opacity="1" transform="matrix(1 0 0 1.00294 405.262 340.081)"/></g></g></g></svg>