<svg width="362" height="254" xmlns="http://www.w3.org/2000/svg" xmlns:xlink="http://www.w3.org/1999/xlink" xml:space="preserve" overflow="hidden"><defs><clipPath id="clip0"><rect x="1426" y="254" width="362" height="254"/></clipPath><clipPath id="clip1"><rect x="1427" y="255" width="360" height="252"/></clipPath><clipPath id="clip2"><rect x="1427" y="255" width="360" height="252"/></clipPath></defs><g clip-path="url(#clip0)" transform="translate(-1426 -254)"><g clip-path="url(#clip1)"><g clip-path="url(#clip2)"><path d="M139.159 129.882C139.159 150.843 122.167 167.834 101.207 167.834 80.2459 167.834 63.2541 150.843 63.2541 129.882 63.2541 108.921 80.2459 91.9293 101.207 91.9293 122.167 91.9293 139.159 108.921 139.159 129.882Z" stroke="#4472C4" stroke-width="4.21694" stroke-linecap="butt" stroke-linejoin="miter" stroke-miterlimit="4" stroke-opacity="1" fill="#0E78D4" fill-rule="nonzero" fill-opacity="1" transform="matrix(1 0 0 1.00026 1403.92 178.084)"/><path d="M341.572 129.882C341.572 150.843 324.581 167.834 303.62 167.834 282.659 167.834 265.667 150.843 265.667 129.882 265.667 108.921 282.659 91.9293 303.62 91.9293 324.581 91.9293 341.572 108.921 341.572 129.882Z" stroke="#4472C4" stroke-width="4.21694" stroke-linecap="butt" stroke-linejoin="miter" stroke-miterlimit="4" stroke-opacity="1" fill="#0E78D4" fill-rule="nonzero" fill-opacity="1" transform="matrix(1 0 0 1.00026 1403.92 178.084)"/><path d="M278.318 312.897 278.318 274.945C278.318 269.041 275.788 263.137 270.728 259.764 260.607 251.33 247.113 245.426 233.619 242.052 224.341 239.522 213.377 236.992 202.413 236.992 192.293 236.992 181.328 238.679 171.208 242.052 157.714 245.426 145.063 252.173 134.099 259.764 129.038 263.981 126.508 269.041 126.508 274.945L126.508 312.897 278.318 312.897Z" stroke="#4472C4" stroke-width="4.21694" stroke-linecap="butt" stroke-linejoin="miter" stroke-miterlimit="4" stroke-opacity="1" fill="#0E78D4" fill-rule="nonzero" fill-opacity="1" transform="matrix(1 0 0 1.00026 1403.92 178.084)"/><path d="M240.366 188.919C240.366 209.88 223.374 226.871 202.413 226.871 181.452 226.871 164.461 209.88 164.461 188.919 164.461 167.958 181.452 150.967 202.413 150.967 223.374 150.967 240.366 167.958 240.366 188.919Z" stroke="#4472C4" stroke-width="4.21694" stroke-linecap="butt" stroke-linejoin="miter" stroke-miterlimit="4" stroke-opacity="1" fill="#0E78D4" fill-rule="nonzero" fill-opacity="1" transform="matrix(1 0 0 1.00026 1403.92 178.084)"/><path d="M371.934 200.726C361.814 192.293 348.319 186.389 334.825 183.015 325.548 180.485 314.584 177.955 303.62 177.955 293.499 177.955 282.535 179.642 272.414 183.015 267.354 184.702 262.294 186.389 257.233 188.919L257.233 189.762C257.233 204.1 251.33 217.594 242.052 226.871 258.077 231.932 270.728 238.679 280.848 246.269 283.378 248.8 285.909 250.486 287.595 253.86L379.525 253.86 379.525 215.907C379.525 210.004 376.995 204.1 371.934 200.726Z" stroke="#4472C4" stroke-width="4.21694" stroke-linecap="butt" stroke-linejoin="miter" stroke-miterlimit="4" stroke-opacity="1" fill="#0E78D4" fill-rule="nonzero" fill-opacity="1" transform="matrix(1 0 0 1.00026 1403.92 178.084)"/><path d="M123.978 246.269 123.978 246.269C135.786 237.836 149.28 231.088 162.774 226.871 153.497 216.751 147.593 204.1 147.593 189.762 147.593 188.919 147.593 188.919 147.593 188.076 142.533 186.389 137.472 183.859 132.412 183.015 123.135 180.485 112.171 177.955 101.207 177.955 91.0859 177.955 80.1219 179.642 70.0012 183.015 56.507 187.232 43.8562 193.136 32.8921 200.726 27.8318 204.1 25.3017 210.004 25.3017 215.907L25.3017 253.86 116.388 253.86C118.918 250.486 120.605 248.8 123.978 246.269Z" stroke="#4472C4" stroke-width="4.21694" stroke-linecap="butt" stroke-linejoin="miter" stroke-miterlimit="4" stroke-opacity="1" fill="#0E78D4" fill-rule="nonzero" fill-opacity="1" transform="matrix(1 0 0 1.00026 1403.92 178.084)"/></g></g></g></svg>