<svg width="716" height="592" xmlns="http://www.w3.org/2000/svg" xmlns:xlink="http://www.w3.org/1999/xlink" xml:space="preserve" overflow="hidden"><defs><clipPath id="clip0"><rect x="1696" y="404" width="716" height="592"/></clipPath><clipPath id="clip1"><rect x="1697" y="405" width="714" height="591"/></clipPath><clipPath id="clip2"><rect x="1697" y="405" width="714" height="592"/></clipPath></defs><g clip-path="url(#clip0)" transform="translate(-1696 -404)"><g clip-path="url(#clip1)"><g clip-path="url(#clip2)"><path d="M726.804 402.902C726.891 385.537 712.883 371.391 695.519 371.305 689.64 371.275 683.872 372.895 678.867 375.979L543.776 453.218C545.6 462.007 545.543 471.083 543.61 479.849 536.523 509.187 510.075 529.716 479.896 529.303L339.702 529.303 339.702 497.703 481.903 497.703C499.355 497.703 513.503 483.555 513.503 466.103 513.503 448.651 499.355 434.503 481.903 434.503L292.302 434.503C279.12 434.506 266.202 438.194 255.006 445.152L31.6002 553.003 142.201 663.604C193.306 612.499 259.714 592.504 331.802 592.504L479.454 592.504C486.177 592.503 492.725 590.358 498.145 586.381L715.136 427.235C722.493 421.297 726.78 412.357 726.804 402.902Z" stroke="#4472C4" stroke-width="7.90005" stroke-linecap="butt" stroke-linejoin="miter" stroke-miterlimit="4" stroke-opacity="1" fill="#0E78D4" fill-rule="nonzero" fill-opacity="1" transform="matrix(1 0 0 1.00016 1674.76 311.875)"/><path d="M410.802 163.649C361.032 64.8989 276.502 124.149 276.502 179.45 276.502 262.4 410.802 365.101 410.802 365.101 410.802 365.101 545.103 262.4 545.103 179.45 545.103 124.149 460.573 64.8989 410.802 163.649Z" stroke="#4472C4" stroke-width="7.90005" stroke-linecap="butt" stroke-linejoin="miter" stroke-miterlimit="4" stroke-opacity="1" fill="#0E78D4" fill-rule="nonzero" fill-opacity="1" transform="matrix(1 0 0 1.00016 1674.76 311.875)"/></g></g></g></svg>